<svg width="55" height="55" viewBox="0 0 55 55" fill="none" xmlns="http://www.w3.org/2000/svg">
<path d="M0 28.8432C0 27.8654 0 26.8877 0 25.91C0.166222 24.9616 0.315333 24.0107 0.498667 23.0672C2.74267 11.613 9.46978 4.23359 20.6824 1.00951C22.4571 0.498645 24.3296 0.327541 26.1556 0C27.0527 0 27.9473 0 28.8444 0C29.5998 0.107551 30.3551 0.21999 31.1129 0.320208C42.1422 1.76481 51.2453 9.83112 53.9978 20.6766C54.4524 22.4732 54.67 24.3285 55 26.1568C55 27.1346 55 28.1123 55 29.09C54.8313 30.08 54.6529 31.0675 54.4964 32.0575C52.7682 42.9788 44.1809 52.0081 33.3789 54.2374C31.9562 54.5307 30.5189 54.7482 29.0889 55C28.1111 55 27.1333 55 26.1556 55C25.1216 54.8338 24.0876 54.6627 23.0511 54.5014C12.034 52.7879 3.04333 44.2816 0.765111 33.3847C0.452222 31.8815 0.251778 30.3562 0 28.8432ZM21.9022 7.48211C27.632 19.9971 33.3153 32.407 39.0109 44.8462C47.278 39.4956 51.1867 28.2174 46.2147 18.2225C41.1131 7.96609 29.7709 4.85445 21.9022 7.48211ZM16.0111 10.1855C8.04467 15.0596 3.63 26.653 8.866 36.9437C14.278 47.579 26.2607 50.0429 33.0709 47.4617C27.3949 35.0591 21.7213 22.6663 16.0111 10.1855Z" fill="white"/>
</svg>
