<svg width="91" height="61" viewBox="0 0 91 61" fill="none" xmlns="http://www.w3.org/2000/svg">
<path d="M20.9698 4.07176C20.8592 3.59402 20.7452 3.11292 20.5977 2.48096C23.962 2.64523 27.2543 2.80616 30.5465 2.96708C30.575 3.02575 30.6035 3.0861 30.632 3.14477C27.8393 4.91997 25.0466 6.69517 22.2086 8.49887C22.036 7.96748 21.8901 7.52326 21.746 7.08072C8.14616 10.9664 -1.02152 28.0479 6.27038 43.0926C5.46408 43.5586 4.65275 44.0263 3.83639 44.4974C-3.89134 29.1056 4.04258 9.34205 20.9698 4.07176Z" fill="white"/>
<path d="M51.6631 46.8057C52.5097 47.2951 53.3026 47.7545 54.0971 48.2154C45.0585 62.0633 24.492 65.8853 10.5469 53.5628C10.1714 53.9031 9.78753 54.2501 9.31481 54.6776C7.81453 51.6418 6.34609 48.6664 4.87598 45.6926C4.91621 45.654 4.95476 45.6172 4.99499 45.5786C7.90337 47.1493 10.8101 48.72 13.8056 50.3393C13.4217 50.7416 13.0865 51.092 12.7512 51.4423C22.9129 61.0928 41.8618 60.7726 51.6631 46.8057Z" fill="white"/>
<path d="M77.9739 2.76248C77.9739 1.93104 77.9739 1.2689 77.9739 0.522949C81.9954 1.67121 85.933 2.79433 90.1288 3.99121C85.9414 5.18809 81.9987 6.31624 77.9706 7.46785C77.9706 6.71855 77.9706 6.05641 77.9706 5.28364C64.3842 5.28364 50.8615 5.28364 37.2852 5.28364C37.2852 4.40693 37.2852 3.63919 37.2852 2.76081C50.8045 2.76248 64.3289 2.76248 77.9739 2.76248Z" fill="white"/>
<path d="M47.3213 16.0439C47.3213 15.1454 47.3213 14.3977 47.3213 13.5328C57.5165 13.5328 67.6883 13.5328 77.9355 13.5328C77.9355 12.7566 77.9355 12.0979 77.9355 11.3066C81.967 12.4549 85.8929 13.573 89.8205 14.6928C89.8305 14.7498 89.8389 14.8068 89.849 14.8637C85.9298 15.9835 82.0106 17.105 77.964 18.2616C77.964 17.4821 77.964 16.8049 77.964 16.0455C67.7068 16.0439 57.5551 16.0439 47.3213 16.0439Z" fill="white"/>
<path d="M22.9077 28.2993C21.0286 26.3649 19.9323 23.884 19.4814 21.0913C19.1495 19.0311 19.2249 16.9726 19.6691 14.9393C19.7429 14.6057 20.001 14.2268 20.2877 14.0374C22.9463 12.2723 27.9718 11.233 31.311 11.7476C31.1518 11.937 31.0344 12.0979 30.8953 12.2387C27.4321 15.7489 25.4675 19.829 26.0357 24.8914C26.0575 25.0859 25.9201 25.3524 25.7725 25.4999C24.859 26.4185 23.9219 27.3137 22.9077 28.2993Z" fill="white"/>
<path d="M77.9557 26.8326C69.4619 26.8326 61.0955 26.8326 52.6704 26.8326C52.6704 25.9944 52.6704 25.2267 52.6704 24.3584C61.0519 24.3584 69.4384 24.3584 77.9272 24.3584C77.9272 23.5806 77.9272 22.8983 77.9272 22.0903C81.9855 23.247 85.9147 24.3684 89.844 25.4882C89.8473 25.5435 89.8507 25.5971 89.854 25.6525C85.9198 26.7756 81.9855 27.8987 77.9557 29.0486C77.9557 28.291 77.9557 27.6305 77.9557 26.8326Z" fill="white"/>
<path d="M30.5014 39.4181C29.9901 41.3073 28.9357 43.0523 27.5025 44.5744C25.568 46.6278 23.2229 48.051 20.5425 48.8908C20.1603 49.0115 19.5987 48.8959 19.2333 48.688C15.8891 46.7854 13.663 43.8787 11.8911 40.4054C12.9673 40.6233 13.9245 40.8697 14.8967 41.0038C18.8897 41.557 22.6194 40.9469 25.9167 38.4525C26.0944 38.3184 26.4246 38.2748 26.6459 38.3318C27.8998 38.6587 29.1419 39.0292 30.5014 39.4181Z" fill="white"/>
<path d="M36.335 27.2817C38.9919 26.6112 41.6924 26.9146 44.3326 27.9271C46.2536 28.6646 47.9819 29.7391 49.5023 31.1238C49.7554 31.3551 49.97 31.7675 49.9817 32.1027C50.1108 36.0236 48.7211 39.4751 46.6123 42.6902C46.5889 42.7254 46.5235 42.7305 46.428 42.769C46.2234 42.1035 46.0474 41.4347 45.8161 40.7876C44.356 36.6975 41.8969 33.4907 37.795 31.7289C37.5905 31.6417 37.3944 31.3685 37.3324 31.1422C36.9854 29.8934 36.6803 28.6345 36.335 27.2817Z" fill="white"/>
<path d="M29.6914 24.0246C30.1809 22.2511 31.1883 20.6083 32.5227 19.16C34.5376 16.9724 37.0135 15.5157 39.8447 14.6541C40.1046 14.5753 40.4817 14.5636 40.693 14.696C43.8159 16.6489 46.2214 19.269 47.9111 22.5428C47.9312 22.5813 47.9061 22.645 47.9027 22.6987C46.7796 22.5109 45.6665 22.2645 44.5384 22.1438C40.6997 21.7365 37.1593 22.5143 34.0515 24.9114C33.8972 25.0304 33.6458 25.1544 33.4832 25.1109C32.236 24.779 30.9989 24.4051 29.6914 24.0246Z" fill="white"/>
<path d="M36.6297 35.2559C38.3546 37.0428 39.4007 39.3477 39.8784 41.9225C40.2975 44.1754 40.2338 46.4301 39.7057 48.6595C39.627 48.9898 39.3705 49.3904 39.0822 49.5429C35.8737 51.2343 32.439 51.9602 28.8182 51.8143C28.7746 51.8127 28.7327 51.764 28.6338 51.7003C29.1166 51.1639 29.6195 50.656 30.0687 50.1045C32.7893 46.762 34.2829 43.0272 33.7079 38.6319C33.6794 38.4107 33.7985 38.1022 33.956 37.9363C34.816 37.0378 35.7094 36.1711 36.6297 35.2559Z" fill="white"/>
<path d="M13.0414 20.6486C13.8527 22.3869 14.5484 24.2141 15.519 25.8804C17.0025 28.4283 19.1599 30.2991 21.9241 31.4272C22.1404 31.5161 22.3968 31.7357 22.4572 31.9452C22.8059 33.1588 23.1009 34.3876 23.4328 35.6817C21.5319 36.1376 19.4935 36.084 17.4668 35.5811C14.6976 34.8955 12.3005 33.5142 10.2236 31.5747C10.0241 31.3887 9.83466 31.0618 9.84304 30.807C9.96541 27.156 11.0299 23.7883 12.9811 20.7023C13.0196 20.6386 13.1018 20.6017 13.0414 20.6486Z" fill="white"/>
<path d="M56.0698 35.1101C63.3768 35.1101 70.6033 35.1101 77.9237 35.1101C77.9237 34.3708 77.9237 33.6869 77.9237 32.8806C81.9887 34.0406 85.9364 35.1671 90.1322 36.364C85.9465 37.5592 82.0122 38.684 77.9556 39.8423C77.9556 39.0695 77.9556 38.3889 77.9556 37.6195C70.6084 37.6195 63.3634 37.6195 56.0698 37.6195C56.0698 36.7629 56.0698 35.9952 56.0698 35.1101Z" fill="white"/>
<path d="M59.104 45.9055C65.3667 45.9055 71.6058 45.9055 77.9238 45.9055C77.9238 45.1461 77.9238 44.4873 77.9238 43.6743C81.9603 44.8243 85.8812 45.9423 89.8037 47.0588C89.8138 47.1191 89.8222 47.1778 89.8322 47.2381C85.9181 48.3579 82.0022 49.4777 77.9691 50.631C77.9691 49.8649 77.9691 49.1877 77.9691 48.4115C71.631 48.4115 65.3935 48.4115 59.104 48.4115C59.104 47.5432 59.104 46.7771 59.104 45.9055Z" fill="white"/>
<path d="M35.9257 31.781C35.9039 35.1168 33.2118 37.7721 29.8675 37.757C26.5585 37.7419 23.8698 35.0079 23.8932 31.6821C23.9167 28.363 26.6407 25.6826 29.9664 25.7094C33.3006 25.7362 35.9458 28.4317 35.9257 31.781ZM33.0743 31.7257C33.0693 29.9655 31.6226 28.5373 29.8692 28.5625C28.1493 28.5876 26.7714 29.994 26.7597 31.7374C26.748 33.4489 28.1661 34.8855 29.881 34.9006C31.6394 34.9173 33.0793 33.4858 33.0743 31.7257Z" fill="white"/>
</svg>
