<svg width="29" height="27" viewBox="0 0 29 27" fill="none" xmlns="http://www.w3.org/2000/svg">
<path d="M8.71613 13.4705C8.55061 13.3559 8.43648 13.2989 8.35105 13.2138C5.73006 10.5858 3.11107 7.95513 0.492752 5.32447C-0.167334 4.66144 -0.165332 4.12713 0.499427 3.46009C1.41113 2.54298 2.32284 1.62654 3.23655 0.711439C3.80053 0.146291 4.38386 0.146961 4.94984 0.715461C8.90702 4.68759 12.8629 8.66106 16.8187 12.6345C17.3887 13.2071 17.3927 13.7883 16.8281 14.3548C12.8655 18.337 8.90101 22.3178 4.93649 26.298C4.38719 26.8497 3.79652 26.8484 3.24656 26.298C2.30081 25.352 1.35707 24.4041 0.415331 23.4541C-0.135297 22.899 -0.137967 22.3104 0.413328 21.7567C3.05434 19.1012 5.69802 16.4478 8.3417 13.795C8.42714 13.7078 8.52592 13.6341 8.71613 13.4705Z" fill="white"/>
<path d="M20.4822 13.4879C20.298 13.3565 20.1859 13.2975 20.1004 13.2117C17.4788 10.5837 14.8604 7.95302 12.2415 5.32237C11.5827 4.66068 11.5854 4.12637 12.2515 3.45798C13.1638 2.54154 14.0755 1.6251 14.9893 0.710005C15.5519 0.146198 16.1359 0.148209 16.7025 0.71738C20.6591 4.69018 24.6156 8.66298 28.5714 12.6364C29.1407 13.2083 29.1427 13.7889 28.5774 14.3567C24.6142 18.3382 20.6504 22.3197 16.6852 26.2999C16.1372 26.8503 15.5466 26.8483 14.9953 26.2965C14.0502 25.3499 13.1058 24.4027 12.164 23.4527C11.6141 22.8983 11.6127 22.3097 12.1647 21.7552C14.8064 19.0998 17.4494 16.4463 20.0944 13.7936C20.1805 13.7064 20.2866 13.6407 20.4822 13.4879Z" fill="white"/>
</svg>
