<svg width="33" height="41" viewBox="0 0 33 41" fill="none" xmlns="http://www.w3.org/2000/svg">
<path d="M7.12421 15.6517C8.26291 16.8098 9.33289 17.8987 10.4872 19.0728C9.5474 19.0689 8.7123 18.9959 7.89248 19.0782C6.80536 19.1871 6.02599 18.8419 5.29821 18.0085C4.18352 16.7314 2.93487 15.5718 1.74433 14.3601C1.69197 14.3073 1.65231 14.2421 1.57563 14.1422C2.17568 13.5442 2.77193 12.9468 3.37246 12.3546C4.31209 11.428 5.25171 10.5015 6.20216 9.58666C6.32144 9.47139 6.50342 9.35436 6.65686 9.35323C7.91341 9.34509 9.17086 9.365 10.56 9.37687C9.3973 10.5257 8.30994 11.5999 7.14517 12.7518C7.82052 12.7634 8.41245 12.7783 9.00366 12.7828C14.1628 12.822 19.3214 12.8587 24.4803 12.8967C26.2097 12.909 27.9399 12.9152 29.669 12.9394C30.4566 12.9507 31.0422 13.46 31.1368 14.1684C31.2321 14.8806 30.8113 15.5421 30.1153 15.7406C29.9293 15.7935 29.7258 15.8037 29.5312 15.8024C25.6012 15.7761 21.6718 15.7458 17.7418 15.7163C14.4195 15.6913 11.0969 15.665 7.77413 15.6408C7.59391 15.6393 7.4134 15.6463 7.12421 15.6517Z" fill="#0062FF"/>
<path d="M23.3076 30.9012C24.4818 29.7403 25.574 28.6605 26.7344 27.5135C25.0849 27.5 23.5418 27.4867 21.9977 27.475C16.0798 27.4305 10.1608 27.3876 4.24263 27.3419C3.35544 27.3349 2.70517 26.7031 2.71949 25.8768C2.73348 25.069 3.37171 24.4681 4.25209 24.4738C9.66957 24.5078 15.0878 24.5489 20.5058 24.5887C22.4786 24.6032 24.4511 24.6198 26.4239 24.6344C26.4962 24.6347 26.5688 24.6264 26.7357 24.6167C25.6048 23.4649 24.5318 22.3707 23.3845 21.2025C24.2627 21.2066 25.0525 21.2799 25.8256 21.197C27.0101 21.069 27.873 21.4484 28.6641 22.3607C29.7931 23.6639 31.0657 24.8418 32.3152 26.1129C31.7377 26.6888 31.1757 27.2532 30.6089 27.8133C29.6376 28.7723 28.6639 29.7297 27.6863 30.6834C27.582 30.7846 27.4444 30.9205 27.3211 30.921C26.0215 30.9277 24.7221 30.9114 23.3076 30.9012Z" fill="#0062FF"/>
</svg>
