<svg width="16" height="19" viewBox="0 0 16 19" fill="none" xmlns="http://www.w3.org/2000/svg">
<path d="M2.89979 6.0684C3.51822 6.47052 4.11977 6.8606 4.73819 7.26357C4.24716 8.14341 4.07674 9.06192 4.31128 10.0363C4.47918 10.7365 4.83269 11.3337 5.36674 11.8037C6.56984 12.8631 8.19648 13.004 9.51179 12.1817C10.7875 11.3844 11.4219 9.79311 11.0524 8.31697C10.7124 6.95941 9.51685 5.81665 8.31881 5.75221C8.31881 6.19385 8.31881 6.63377 8.31881 7.07455C8.31881 7.51446 8.31881 7.95438 8.31881 8.33931C7.10137 7.0986 5.87717 5.85274 4.69432 4.64812C5.8468 3.47271 7.07774 2.21653 8.31375 0.9552C8.31375 1.73279 8.31375 2.5542 8.31375 3.36616C11.659 3.91692 13.3177 6.62346 13.3869 9.05848C13.4518 11.3388 11.945 13.7163 9.81721 14.5472C7.43378 15.4777 4.84618 14.8006 3.26426 12.8322C1.72453 10.9152 1.56676 8.20785 2.89979 6.0684Z" fill="white"/>
<path d="M15.9999 13.539C15.9999 15.0674 15.9999 16.5414 15.9999 18.0448C10.6993 18.0448 5.40972 18.0448 0.097168 18.0448C0.097168 16.5596 0.097168 15.0838 0.097168 13.5468C0.954525 13.5468 1.81188 13.539 2.66924 13.5572C2.77045 13.5589 2.87932 13.6892 2.96778 13.7781C5.65128 16.4733 9.78156 16.481 12.4736 13.8083C12.6241 13.659 12.8835 13.5572 13.0962 13.5511C14.0556 13.5244 15.015 13.539 15.9999 13.539ZM13.9671 14.5384C13.9671 15.1788 13.9671 15.7975 13.9671 16.418C14.3388 16.418 14.6833 16.418 15.0269 16.418C15.0269 15.7725 15.0269 15.1546 15.0269 14.5384C14.6561 14.5384 14.3218 14.5384 13.9671 14.5384Z" fill="white"/>
</svg>
