<svg width="15" height="15" viewBox="0 0 15 15" fill="none" xmlns="http://www.w3.org/2000/svg">
<path d="M14.9954 7.45537C15.0445 8.02001 14.6998 8.60168 14.133 8.88666C12.5572 9.67925 10.9797 10.4677 9.40329 11.2587C7.65909 12.1337 5.91529 13.0098 4.17129 13.8853C3.52916 14.2076 2.88621 14.5285 2.2447 14.8523C1.97757 14.9871 1.69775 15.0199 1.40258 14.9895C1.10311 14.9588 0.817153 14.8898 0.571109 14.713C0.233977 14.4705 0.0679689 14.1276 0.0112683 13.7191C-0.0382679 13.3621 0.0886431 13.041 0.184031 12.7127C0.576841 11.3619 0.971903 10.0116 1.36553 8.66097C1.43779 8.41312 1.49265 8.37886 1.75281 8.36655C2.16077 8.34747 2.56812 8.31525 2.97587 8.28981C3.23419 8.27381 3.49272 8.26088 3.75105 8.24549C4.18255 8.21964 4.61404 8.19215 5.04574 8.1665C5.31778 8.1505 5.59003 8.13819 5.86186 8.12178C6.27637 8.09695 6.69088 8.06946 7.10539 8.04422C7.37047 8.02801 7.63575 8.01467 7.90083 7.99888C8.3223 7.97384 8.74377 7.94758 9.16523 7.92194C9.42008 7.90655 9.67492 7.89075 9.92998 7.87639C10.1918 7.86162 10.4538 7.85074 10.7154 7.8331C10.8965 7.82079 11.0192 7.70199 11.0276 7.54195C11.0384 7.33411 10.9541 7.21532 10.7516 7.18003C10.6249 7.15787 10.4945 7.15418 10.3656 7.147C9.95761 7.12402 9.54945 7.10576 9.14169 7.08134C8.63876 7.05118 8.13623 7.01528 7.6333 6.9845C7.34099 6.96665 7.04828 6.95619 6.75577 6.93834C6.36173 6.91433 5.9679 6.88561 5.57386 6.86098C5.3055 6.84416 5.03674 6.83185 4.76818 6.81585C4.35695 6.79123 3.94612 6.76414 3.53489 6.73952C3.25262 6.7227 2.97034 6.70916 2.68807 6.69274C2.34827 6.67305 2.00766 6.65991 1.66909 6.62709C1.52704 6.61334 1.41978 6.5364 1.37331 6.37431C1.03352 5.18882 0.684306 4.00579 0.340623 2.82133C0.232748 2.44955 0.113616 2.07963 0.0331707 1.7017C-0.135703 0.90788 0.355566 0.194493 1.15777 0.0373298C1.57166 -0.0437137 1.96283 0.00552789 2.34356 0.201468C3.95492 1.03057 5.57038 1.85168 7.1844 2.67565C9.01049 3.60796 10.8368 4.54027 12.6629 5.47278C13.1445 5.71858 13.6266 5.96356 14.1068 6.21202C14.5473 6.43997 14.8367 6.79471 14.9708 7.27359C14.9872 7.33206 14.9876 7.39464 14.9954 7.45537Z" fill="white"/>
</svg>
