<svg width="21" height="21" viewBox="0 0 21 21" fill="none" xmlns="http://www.w3.org/2000/svg">
<path d="M4.50417 20.5C4.0125 20.3255 3.83756 19.9669 3.84087 19.4583C3.85293 17.616 3.84507 15.7736 3.84605 13.9314C3.84605 13.487 4.05165 13.1691 4.41307 13.0442C4.95945 12.8554 5.51539 13.2524 5.51656 13.8413C5.51983 15.4167 5.52025 16.9921 5.5178 18.5675V18.8117H18.8083V2.18778H5.5178V2.42135C5.5178 4.00319 5.51745 5.58509 5.51673 7.16705C5.51748 7.36069 5.45114 7.5486 5.32904 7.69871C5.20693 7.84881 5.03663 7.95183 4.84717 7.99019C4.48307 8.06551 4.08071 7.86615 3.93294 7.51553C3.87845 7.38356 3.85004 7.24225 3.84927 7.09944C3.84391 5.19859 3.84313 3.2977 3.84695 1.39679C3.84784 0.843322 4.20005 0.500313 4.75331 0.500313C9.69923 0.499896 14.6451 0.499896 19.591 0.500313C20.1586 0.500313 20.4925 0.838845 20.4926 1.41381C20.4926 7.41597 20.495 13.4181 20.4999 19.4202C20.5007 19.9321 20.3558 20.3015 19.869 20.4997L4.50417 20.5Z" fill="white"/>
<path d="M0.5 10.2826C0.686805 9.78667 1.06006 9.63136 1.56914 9.63332C4.31801 9.64432 7.06697 9.63851 9.81593 9.63851H10.1212C10.0407 9.55411 9.99603 9.50502 9.9489 9.4579C9.37937 8.88799 8.80768 8.32022 8.24092 7.74762C8.00189 7.50621 7.92499 7.2141 8.03247 6.88927C8.13746 6.57185 8.36808 6.38793 8.69421 6.32597C8.9242 6.28225 9.13238 6.34653 9.31757 6.48253C9.39037 6.53618 9.4552 6.60136 9.51941 6.66547C10.5587 7.70265 11.5976 8.74045 12.6361 9.77889C13.1137 10.2563 13.1137 10.6998 12.6361 11.177C11.588 12.2242 10.5402 13.2714 9.49267 14.3187C9.22359 14.5886 8.92089 14.723 8.54326 14.5901C7.95888 14.3844 7.79712 13.6658 8.24191 13.2083C8.79892 12.6353 9.37025 12.0762 9.93504 11.5108C9.98432 11.4615 10.0313 11.4099 10.1202 11.3164H9.83543C7.06044 11.3164 4.28552 11.3166 1.51066 11.317C1.23881 11.317 0.96813 11.2986 0.771935 11.0875C0.660872 10.9681 0.589334 10.8119 0.5 10.6723V10.2826Z" fill="white"/>
</svg>
