<svg width="17" height="17" viewBox="0 0 17 17" fill="none" xmlns="http://www.w3.org/2000/svg">
<path d="M16.9999 9.00999C16.8545 9.69047 16.7678 10.3897 16.553 11.0482C15.8005 13.3547 14.2842 15.0197 12.0826 16.0756C11.5498 16.3312 11.047 16.1941 10.8177 15.7403C10.5782 15.266 10.7918 14.7845 11.3306 14.5156C13.8491 13.2591 15.1893 11.2215 15.2358 8.44238C15.2925 5.05833 12.7271 2.23512 9.30981 1.79553C7.03612 1.50303 4.61142 2.45778 3.29932 4.18675C3.39992 4.19416 3.47941 4.1959 3.55763 4.20652C4.00944 4.26756 4.31633 4.59932 4.32981 5.03849C4.34379 5.49303 4.04375 5.8632 3.57902 5.92718C2.79145 6.03558 2.00225 6.13301 1.21249 6.22429C0.614187 6.29337 0.183621 5.90455 0.149029 5.27757C0.118743 4.72818 0.0957991 4.17837 0.063113 3.62913C0.0551357 3.49482 0.0217436 3.36205 0 3.22858C0 3.02833 0 2.82816 0 2.62792C0.0266854 2.5893 0.0571124 2.55277 0.0793502 2.51184C0.308717 2.09034 0.675253 1.91601 1.11267 2.02217C1.48866 2.11339 1.72707 2.43809 1.75121 2.88809C1.75615 2.98007 1.76928 3.07164 1.77959 3.17298C1.83586 3.15126 1.86374 3.14832 1.87906 3.13303C1.92339 3.08882 1.96328 3.04021 2.00387 2.99243C3.0175 1.79818 4.26938 0.938135 5.768 0.464109C6.43301 0.253741 7.1329 0.15142 7.81698 0C8.27233 0 8.72767 0 9.18302 0C9.35443 0.028077 9.52626 0.0538492 9.69724 0.0845104C13.0749 0.691099 15.3779 2.57805 16.534 5.77848C16.7764 6.44947 16.8491 7.18038 17 7.8837C16.9999 8.25911 16.9999 8.63451 16.9999 9.00999Z" fill="white"/>
<path d="M7.24524e-05 8.92346C0.0534699 8.82557 0.0990424 8.72263 0.161786 8.6307C0.386896 8.30054 0.7188 8.17991 1.10388 8.25668C1.47883 8.33141 1.7106 8.58214 1.78588 8.94676C1.89709 9.48513 1.99077 10.0269 2.1001 10.5656C2.20719 11.0935 1.96375 11.5191 1.46745 11.6519C0.974847 11.7836 0.530714 11.5453 0.379288 11.0143C0.225689 10.4755 0.124256 9.92272 0 9.37608C7.24524e-05 9.22528 7.24524e-05 9.0744 7.24524e-05 8.92346Z" fill="white"/>
<path d="M7.68816 17C7.60608 16.9765 7.52525 16.9433 7.44157 16.9311C6.95382 16.8596 6.60082 16.4419 6.64423 15.9815C6.69064 15.4899 7.12251 15.1257 7.60496 15.1411C8.12602 15.1578 8.64812 15.1597 9.16925 15.1463C9.62802 15.1345 10.0404 15.4716 10.0876 15.9294C10.1419 16.4556 9.83169 16.8606 9.32443 16.9319C9.22722 16.9456 9.13239 16.9768 9.03644 16.9999C8.58702 17 8.13759 17 7.68816 17Z" fill="white"/>
<path d="M6.90678 7.45841C6.90671 6.82601 6.90549 6.19367 6.907 5.56127C6.90857 4.92062 7.24516 4.52329 7.78927 4.51574C8.34483 4.50805 8.67776 4.88986 8.67841 5.53924C8.67941 6.59322 8.68571 7.64727 8.67297 8.70105C8.67032 8.9215 8.74369 9.03353 8.94992 9.11792C9.6551 9.40661 10.3553 9.70667 11.0533 10.0114C11.6124 10.2556 11.8184 10.7032 11.6049 11.1768C11.3906 11.6523 10.9054 11.816 10.346 11.5818C9.39711 11.1845 8.45499 10.7721 7.50665 10.3734C7.09097 10.1987 6.909 9.8902 6.9075 9.4671C6.90521 8.79756 6.90693 8.12802 6.90678 7.45841Z" fill="white"/>
<path d="M5.3125 14.7347C5.26226 15.4275 4.55622 15.9105 4.00169 15.5483C3.38917 15.1483 2.83586 14.6455 2.31062 14.1331C2.0068 13.8367 2.10204 13.2815 2.40766 12.9951C2.72949 12.6935 3.21311 12.6622 3.56379 12.9462C4.04877 13.3391 4.5331 13.7351 4.98858 14.1603C5.14218 14.3037 5.20706 14.5405 5.3125 14.7347Z" fill="white"/>
</svg>
