<svg width="78" height="77" viewBox="0 0 78 77" fill="none" xmlns="http://www.w3.org/2000/svg">
<path d="M63.2934 38.4002C63.4029 51.9047 52.3443 63.1161 38.8357 63.2421C24.9366 63.3702 13.5578 52.1216 13.7851 38.0614C13.9999 24.8048 24.6949 13.8392 38.4452 13.738C52.0655 13.6388 63.1818 24.6767 63.2934 38.4002ZM16.4583 38.0841C16.2455 50.1942 25.9881 60.3437 38.0321 60.5607C50.2929 60.7817 60.3805 51.1052 60.6202 38.8898C60.8598 26.8128 51.1028 16.6488 39.0464 16.4112C26.8124 16.1736 16.6711 25.9017 16.4583 38.0841Z" fill="white"/>
<path d="M5.51932 12.3002C5.51932 10.5793 5.51312 8.85843 5.52139 7.13964C5.52758 5.98896 5.9986 5.48075 7.13689 5.47456C10.6117 5.45803 14.0864 5.46423 17.5633 5.47456C18.5735 5.47662 19.1891 5.99515 19.2036 6.79464C19.218 7.59826 18.6107 8.12299 17.5922 8.12712C14.8405 8.13952 12.0867 8.16431 9.33496 8.11059C8.44871 8.09407 8.1347 8.30478 8.15742 9.24682C8.22146 11.9634 8.18635 14.6821 8.18221 17.4008C8.18015 18.5329 7.72359 19.1464 6.89312 19.1588C6.01719 19.1712 5.53172 18.5411 5.52552 17.3594C5.51726 15.6737 5.52345 13.988 5.52345 12.3022C5.52345 12.3002 5.52139 12.3002 5.51932 12.3002Z" fill="white"/>
<path d="M68.8814 68.8366C68.8814 65.8018 68.8814 62.9468 68.8814 60.0939C68.8814 59.7489 68.867 59.4018 68.9041 59.063C68.9909 58.3089 69.4309 57.8545 70.187 57.8338C70.9493 57.8131 71.4286 58.2676 71.5154 59.0072C71.5939 59.6869 71.5546 60.381 71.5546 61.0689C71.5567 63.8909 71.5608 66.7129 71.5526 69.5348C71.5484 71.109 71.1559 71.5036 69.6169 71.5057C66.3136 71.5098 63.0082 71.5242 59.7049 71.4891C59.2215 71.485 58.5996 71.3734 58.298 71.0615C58.0129 70.7661 57.8373 70.012 58.0212 69.7001C58.265 69.289 58.8992 68.8862 59.3764 68.8738C62.1281 68.7973 64.8819 68.8366 67.6357 68.8366C68.0096 68.8366 68.3815 68.8366 68.8814 68.8366Z" fill="white"/>
<path d="M68.8898 8.1354C65.8179 8.1354 62.9298 8.1354 60.0438 8.1354C58.5109 8.1354 57.9015 7.76561 57.8808 6.83391C57.8602 5.87948 58.5233 5.46838 60.0872 5.47044C63.2872 5.47044 66.4893 5.46838 69.6893 5.47664C71.1313 5.47871 71.5506 5.88775 71.5548 7.30493C71.561 10.7115 71.5527 14.1202 71.5589 17.5268C71.561 18.3883 71.2635 19.0225 70.3338 19.1444C69.4786 19.2559 68.8981 18.6176 68.8939 17.5557C68.8815 14.837 68.8898 12.1184 68.8898 9.39971C68.8898 9.02579 68.8898 8.656 68.8898 8.1354Z" fill="white"/>
<path d="M5.51094 64.6159C5.51094 62.9302 5.50268 61.2444 5.51301 59.5587C5.52127 58.4163 5.96956 57.8564 6.84755 57.8461C7.70902 57.8358 8.1697 58.4142 8.17383 59.5422C8.18003 62.329 8.19656 65.1179 8.16557 67.9048C8.15731 68.6195 8.37422 68.8592 9.10554 68.8488C11.754 68.8117 14.4045 68.8344 17.055 68.8364C17.3648 68.8364 17.6768 68.8199 17.9825 68.8571C18.7345 68.9501 19.1973 69.3963 19.1973 70.1503C19.1973 70.8878 18.7758 71.458 18.0135 71.4642C14.264 71.5014 10.5124 71.5159 6.76285 71.4684C5.85594 71.456 5.51094 70.7556 5.51714 69.8818C5.52747 68.1279 5.51921 66.3719 5.51921 64.618C5.51507 64.6159 5.51301 64.6159 5.51094 64.6159Z" fill="white"/>
<path d="M5.37273 39.8545C4.13528 39.8545 2.8999 39.8669 1.66245 39.8504C0.637784 39.8359 0.0386852 39.3443 0.00149974 38.5365C-0.0356857 37.7205 0.621258 37.1276 1.67898 37.1255C4.2551 37.1193 6.83123 37.1524 9.40736 37.1627C10.2874 37.1668 10.8782 37.5284 10.9485 38.4559C11.0105 39.2864 10.4279 39.807 9.3929 39.8297C8.05422 39.8587 6.71348 39.8359 5.37273 39.8359C5.37273 39.8421 5.37273 39.8483 5.37273 39.8545Z" fill="white"/>
<path d="M71.5858 39.8607C70.3153 39.8607 69.0469 39.8752 67.7764 39.8566C66.7331 39.8401 66.0824 39.2719 66.1113 38.4477C66.1381 37.6523 66.731 37.1379 67.766 37.1338C70.3731 37.1234 72.9823 37.14 75.5894 37.1751C76.5025 37.1875 77.1409 37.7866 77.0603 38.5406C76.9715 39.3773 76.4364 39.8215 75.6018 39.8359C74.2632 39.8566 72.9245 39.8421 71.5858 39.8421C71.5858 39.8483 71.5858 39.8545 71.5858 39.8607Z" fill="white"/>
<path d="M37.2054 5.31548C37.2054 4.07803 37.191 2.84058 37.2096 1.60519C37.2261 0.564002 37.7157 -0.00410934 38.5421 2.23786e-05C39.3622 0.00208824 39.8766 0.576397 39.8849 1.60726C39.9055 4.18339 39.8973 6.76158 39.8931 9.3377C39.8911 10.2116 39.4882 10.8045 38.5937 10.8995C37.8004 10.9842 37.2178 10.3087 37.2013 9.33564C37.1807 7.99696 37.1972 6.65622 37.1972 5.31548C37.1992 5.31548 37.2034 5.31548 37.2054 5.31548Z" fill="white"/>
<path d="M37.195 71.5284C37.195 70.2579 37.1868 68.9853 37.1971 67.7148C37.2054 66.6963 37.6991 66.1076 38.5234 66.0952C39.327 66.0828 39.8744 66.6777 39.8827 67.6962C39.9054 70.2723 39.9013 72.8505 39.8786 75.4266C39.8703 76.4245 39.3001 77.0669 38.5027 76.9946C37.5896 76.9141 37.2033 76.3253 37.2033 75.4452C37.2033 74.1396 37.2033 72.834 37.2033 71.5284C37.2012 71.5284 37.1992 71.5284 37.195 71.5284Z" fill="white"/>
<path d="M47.2352 52.6092C46.5163 52.2001 45.8015 51.8035 45.0991 51.3924C43.9216 50.7024 43.3803 50.9131 43.0353 52.2043C42.2937 54.9704 42.7213 55.02 39.3911 54.9787C38.3252 54.9663 37.2571 54.9643 36.1911 54.9808C35.1933 54.9952 34.5467 54.6193 34.3897 53.5574C34.3153 53.0492 34.1439 52.5555 34.0116 52.0576C33.7369 51.0329 33.0923 50.752 32.1978 51.2705C31.6628 51.5804 31.1318 51.9026 30.603 52.2229C29.9171 52.6381 29.2829 52.5451 28.7272 51.9977C27.5021 50.7912 26.2977 49.5641 25.0747 48.3535C24.4715 47.7565 24.4075 47.1078 24.833 46.393C25.1491 45.8621 25.4755 45.3332 25.7833 44.7982C26.2626 43.9677 25.9589 43.2632 25.0252 43.0277C24.4261 42.8769 23.8228 42.7385 23.2217 42.598C22.4366 42.4162 22.0462 41.8915 22.0359 41.1209C22.0152 39.367 22.0255 37.611 22.0359 35.8571C22.0421 35.0618 22.4614 34.5763 23.2279 34.3883C23.8621 34.2334 24.5004 34.0991 25.1284 33.9255C25.9279 33.7024 26.213 33.0042 25.8267 32.2687C25.7957 32.2088 25.7565 32.1489 25.7213 32.0911C24.0666 29.3042 24.0108 29.6988 26.3824 27.3086C27.1323 26.5525 27.8967 25.8067 28.6507 25.0547C29.2746 24.4309 29.9502 24.3544 30.7001 24.8296C31.2227 25.1601 31.7557 25.4782 32.2928 25.784C33.0056 26.1889 33.7162 25.8976 33.9621 25.1167C33.9827 25.0506 33.991 24.9824 34.0054 24.9143C34.7801 21.6833 34.6355 22.0097 37.85 22.0014C38.8127 21.9993 39.7775 21.9973 40.7401 22.0014C42.054 22.0076 42.366 22.2493 42.6903 23.495C42.8205 23.9929 42.932 24.499 43.0725 24.9928C43.3411 25.9286 44.0311 26.2343 44.845 25.7385C47.7723 23.9536 47.3323 24.0239 49.7824 26.4285C50.5179 27.1516 51.2471 27.8829 51.9722 28.6163C52.5816 29.234 52.7035 29.9054 52.2077 30.6635C51.8689 31.1821 51.5508 31.7151 51.2492 32.2543C50.8319 32.998 51.1108 33.6735 51.9371 33.9131C52.53 34.0867 53.1291 34.2437 53.7344 34.3759C54.6083 34.568 55.0194 35.101 55.0194 35.9831C55.0214 37.6358 55.0235 39.2864 55.0338 40.9391C55.04 41.8584 54.631 42.4327 53.7055 42.6249C53.1332 42.7447 52.5672 42.8934 52.0053 43.0484C51.1252 43.2901 50.8298 43.9697 51.2678 44.763C51.5673 45.3043 51.8875 45.8352 52.2139 46.362C52.654 47.0706 52.6188 47.7213 52.0177 48.3246C50.7782 49.5662 49.5552 50.8243 48.2971 52.0431C48.0492 52.2766 47.6608 52.384 47.2352 52.6092ZM27.5331 30.05C29.1589 31.5705 29.1941 33.2996 28.0806 35.1217C28.062 35.1506 28.064 35.196 28.0413 35.2167C27.6529 35.5576 27.3162 36.0616 26.8638 36.2062C24.7297 36.89 24.7607 36.857 24.7091 39.1398C24.6905 39.9578 24.9632 40.3855 25.7399 40.4516C27.2212 40.5797 28.1467 41.3027 28.4441 42.7963C28.502 43.0918 28.7829 43.3521 28.8077 43.6413C28.8511 44.1268 28.878 44.6597 28.7168 45.1039C28.4669 45.796 27.7128 46.4839 27.8037 47.0747C27.8988 47.6883 28.7912 48.149 29.2498 48.7419C29.8097 49.4649 30.2972 49.3368 30.9728 48.8906C31.5512 48.5084 32.3817 47.9548 32.8919 48.1201C34.5136 48.6468 36.5113 48.9237 36.6126 51.3118C36.6249 51.6258 36.8295 52.1836 36.9865 52.1981C37.974 52.2931 38.9904 52.3757 39.9551 52.2146C40.2423 52.1671 40.486 51.3449 40.5976 50.8449C40.8124 49.8802 41.2525 49.2997 42.1986 48.7935C43.8947 47.8866 45.2974 48.0457 46.7063 49.2191C46.8055 49.3017 46.9542 49.3265 47.1257 49.3988C47.888 48.6138 48.6483 47.8308 49.4539 47.0004C49.1048 46.4013 48.7206 45.7939 48.3921 45.1597C48.2392 44.8663 48.0967 44.511 48.1132 44.1949C48.202 42.5402 49.5469 40.871 51.1955 40.5177C52.1726 40.309 52.5383 39.8608 52.3627 38.9084C52.3317 38.7411 52.3503 38.5655 52.3461 38.394C52.3007 36.5843 52.6891 36.9665 50.7864 36.3756C50.1563 36.1794 49.4188 35.7848 49.0883 35.258C48.0595 33.6198 47.7496 31.901 49.2845 30.3103C49.3713 30.2194 49.3899 30.0645 49.425 29.9756C48.6338 29.1637 47.8715 28.3787 47.072 27.5565C46.7001 27.7734 46.3469 27.9779 45.9957 28.1866C43.7625 29.5149 41.176 28.4634 40.5852 25.9141C40.3621 24.9473 39.9716 24.4556 38.9428 24.6519C38.7776 24.6829 38.5999 24.656 38.4284 24.656C36.4679 24.6664 36.9761 24.4908 36.4225 26.2281C36.2366 26.8128 35.9494 27.4925 35.4908 27.8333C34.8483 28.3105 34.0199 28.577 33.2328 28.8063C32.8506 28.9179 32.3528 28.8229 31.9664 28.6741C31.2496 28.3994 30.51 27.6577 29.9026 27.7713C29.256 27.8912 28.7478 28.7712 28.1859 29.3269C27.9917 29.517 27.8203 29.7298 27.5331 30.05Z" fill="white"/>
<path d="M38.5651 45.3125C34.6957 45.3166 31.7085 42.3212 31.7085 38.4353C31.7085 34.7064 34.7308 31.6737 38.4701 31.6531C42.327 31.6324 45.3969 34.6692 45.3845 38.4952C45.3721 42.3129 42.3787 45.3063 38.5651 45.3125ZM42.6761 38.5634C42.7175 36.262 40.9264 34.3862 38.6395 34.3325C36.3608 34.2788 34.4354 36.0988 34.3776 38.3568C34.3197 40.6478 36.1191 42.5629 38.3812 42.6207C40.7694 42.6785 42.6348 40.9164 42.6761 38.5634Z" fill="white"/>
</svg>
