<svg width="38" height="23" viewBox="0 0 38 23" fill="none" xmlns="http://www.w3.org/2000/svg">
<path d="M29.9109 11.1783C29.7714 11.0817 29.6752 11.0337 29.6033 10.9619C27.3951 8.74787 25.1886 6.53154 22.9827 4.31521C22.4265 3.75661 22.4282 3.30646 22.9883 2.74447C23.7564 1.9718 24.5245 1.19971 25.2943 0.428735C25.7695 -0.0474027 26.2609 -0.0468378 26.7377 0.432124C30.0717 3.77864 33.4045 7.12629 36.7373 10.4739C37.2175 10.9563 37.2209 11.446 36.7451 11.9233C33.4067 15.2782 30.0666 18.6321 26.7265 21.9854C26.2637 22.4502 25.7661 22.4491 25.3027 21.9854C24.5059 21.1884 23.7108 20.3898 22.9174 19.5895C22.4535 19.1218 22.4513 18.6259 22.9157 18.1594C25.1408 15.9221 27.3681 13.6866 29.5954 11.4516C29.6674 11.3782 29.7506 11.3161 29.9109 11.1783Z" fill="#0062FF"/>
<path d="M7.17603 11.2138C7.33122 11.3245 7.42569 11.3742 7.49767 11.4465C9.70641 13.6606 11.9123 15.8769 14.1188 18.0932C14.6738 18.6507 14.6716 19.1008 14.1104 19.664C13.3417 20.4361 12.5736 21.2082 11.8038 21.9791C11.3298 22.4541 10.8378 22.4524 10.3604 21.9729C7.02701 18.6258 3.69365 15.2788 0.360853 11.9311C-0.118795 11.4493 -0.120482 10.9602 0.355793 10.4818C3.69478 7.12737 7.03433 3.77294 10.375 0.419649C10.8367 -0.044062 11.3343 -0.0423682 11.7988 0.422472C12.595 1.21999 13.3907 2.01807 14.1841 2.81841C14.6474 3.28551 14.6485 3.78142 14.1835 4.24852C11.9579 6.48574 9.73115 8.72127 7.50273 10.9562C7.43019 11.0297 7.34078 11.085 7.17603 11.2138Z" fill="#0062FF"/>
</svg>
