<svg width="63" height="26" viewBox="0 0 63 26" fill="none" xmlns="http://www.w3.org/2000/svg">
<path d="M55.23 12.7475C55.23 9.15944 53.5354 7.36436 49.9463 7.36436H45.2606C43.2665 7.36436 40.6744 8.85992 37.5838 11.7505L32.6992 6.76635C36.7868 2.87872 40.3749 0.884644 43.565 0.884644H50.5433C53.9334 0.884644 56.5245 1.58216 58.7186 2.97822C61.1106 4.57327 62.3077 7.06484 62.3077 10.3555V16.2372C62.3077 19.4273 61.1117 21.9199 58.7186 23.6144C56.5255 24.91 53.9334 25.6085 50.5433 25.6085H43.565C40.0754 25.6085 35.9888 23.1159 31.1031 18.3308L26.3179 13.2461C22.3298 9.35844 19.2391 7.36436 16.9466 7.36436H12.3604C8.77127 7.36436 6.97721 9.15842 6.97721 12.7475V13.8451C6.97721 17.3347 8.77127 19.1288 12.3604 19.1288H16.9466C19.0401 19.1288 21.6322 17.6332 24.7229 14.7416L29.6075 19.8263C25.4204 23.6144 21.8312 25.6085 18.8411 25.6085H11.7624C8.37327 25.6085 5.68066 24.91 3.6876 23.6144C1.19604 21.9189 0 19.4273 0 16.2362V10.3555C0 7.06484 1.19604 4.57225 3.68863 2.97822C5.68168 1.58216 8.3743 0.884644 11.7634 0.884644H18.8422C22.1318 0.884644 26.2194 3.37724 31.1041 8.26088L36.0883 13.245C39.9769 17.2332 43.0665 19.1278 45.2606 19.1278H49.9463C53.5344 19.1278 55.23 17.3337 55.23 13.8441V12.7475Z" fill="white"/>
</svg>
