<svg width="43" height="45" viewBox="0 0 43 45" fill="none" xmlns="http://www.w3.org/2000/svg">
<path d="M11.0865 21.9837C11.0865 25.122 11.0871 28.2604 11.0859 31.3987C11.0859 32.474 10.4605 33.107 9.39612 33.1075C6.82394 33.1087 4.25234 33.1087 1.68016 33.1075C0.645182 33.107 0.00875988 32.4786 0.00875984 31.4413C0.00703178 26.3643 0.00991129 21.2874 0.010487 16.211C0.010487 14.9825 0.0323729 13.7534 0.000695753 12.5261C-0.0269498 11.4473 0.771889 10.7758 1.73948 10.789C4.28229 10.8241 6.82567 10.8005 9.36905 10.8011C10.4628 10.8017 11.0865 11.422 11.0865 12.5117C11.0871 15.669 11.0871 18.8264 11.0865 21.9837ZM5.68299 14.8316C4.19359 14.8293 2.98468 16.0249 2.97892 17.5063C2.97316 19.0101 4.17113 20.2173 5.67262 20.2213C7.16721 20.2253 8.38476 19.0084 8.38073 17.5155C8.37727 16.0347 7.17009 14.8333 5.68299 14.8316ZM5.68933 23.643C4.19877 23.6395 2.98813 24.8318 2.97949 26.3119C2.97028 27.8123 4.17228 29.0287 5.66802 29.0333C7.16375 29.0379 8.3813 27.8267 8.38188 26.3332C8.38188 24.8542 7.17354 23.6465 5.68933 23.643Z" fill="white"/>
<path d="M42.5824 21.3061C42.5397 29.2864 40.5677 36.0296 36.5919 42.1784C36.2222 42.7503 35.8265 43.305 35.4302 43.859C35.0622 44.3734 34.4627 44.4931 33.9973 44.1626C33.5181 43.8227 33.4357 43.2111 33.8153 42.6904C36.35 39.2129 38.2063 35.4076 39.338 31.2539C40.3972 27.3674 40.7773 23.4146 40.483 19.3963C40.0102 12.9399 37.908 7.06408 34.2012 1.76018C33.9351 1.37948 33.8493 0.99187 34.0837 0.57834C34.2933 0.208582 34.6308 0.0542295 35.0524 0.0905141C35.4072 0.121039 35.641 0.330683 35.8374 0.611745C37.5624 3.07334 38.9787 5.70024 40.0689 8.50222C41.2479 11.5305 42.0173 14.6614 42.352 17.8919C42.4919 19.2448 42.5369 20.608 42.5824 21.3061Z" fill="white"/>
<path d="M33.7306 22.3641C33.6839 28.0528 31.9192 33.5795 28.3714 38.5304C28.1819 38.7947 27.9763 39.0303 27.6371 39.0879C27.2103 39.1599 26.8578 39.0292 26.6067 38.6698C26.3625 38.3202 26.3867 37.8957 26.6343 37.5098C27.2857 36.4927 27.9838 35.5003 28.5655 34.4446C30.1954 31.4877 31.1901 28.3177 31.5489 24.9582C32.2533 18.3567 30.7305 12.315 26.958 6.84639C26.651 6.40118 26.6303 5.99514 26.8924 5.61617C27.1325 5.26887 27.5835 5.07362 27.9786 5.23719C28.2268 5.33971 28.4704 5.54187 28.6277 5.76246C29.7951 7.40102 30.7575 9.15651 31.5356 11.0122C33.0043 14.5169 33.7185 18.173 33.7306 22.3641Z" fill="white"/>
<path d="M26.1964 21.962C26.1665 26.4526 24.8568 30.5275 22.2253 34.1726C21.9286 34.5833 21.5272 34.7434 21.1062 34.6276C20.4099 34.4364 20.176 33.6675 20.5757 33.0294C21.2006 32.0313 21.8636 31.0464 22.3785 29.9918C23.8684 26.9399 24.4081 23.6967 24.1207 20.3165C23.8379 16.9841 22.7246 13.9488 20.8159 11.205C20.5504 10.8237 20.4732 10.4338 20.714 10.0226C20.9219 9.66782 21.249 9.51058 21.6591 9.54053C22.0001 9.5653 22.2443 9.75075 22.4355 10.0243C23.9289 12.1622 24.9973 14.4931 25.6101 17.0296C26.0196 18.7257 26.1947 20.2606 26.1964 21.962Z" fill="white"/>
<path d="M18.7119 21.9605C18.6975 24.8189 17.8658 27.4141 16.1956 29.7375C15.7458 30.363 14.9464 30.3964 14.5184 29.8164C14.2426 29.442 14.2587 29.0032 14.5743 28.5637C15.3656 27.4625 15.9652 26.2657 16.3027 24.952C17.1609 21.612 16.6644 18.4893 14.7615 15.6003C14.667 15.4569 14.5634 15.3123 14.5063 15.1528C14.341 14.6886 14.5559 14.18 14.9913 13.9554C15.4388 13.725 15.9618 13.8454 16.2687 14.2727C16.9501 15.2196 17.4892 16.2442 17.8929 17.3391C18.4493 18.8481 18.7079 20.3179 18.7119 21.9605Z" fill="white"/>
</svg>
