<svg width="42" height="44" viewBox="0 0 42 44" fill="none" xmlns="http://www.w3.org/2000/svg">
<path d="M10.9102 21.9916C10.9102 25.0801 10.9108 28.1685 10.9097 31.2569C10.9097 32.3151 10.2941 32.938 9.24672 32.9386C6.71544 32.9397 4.18472 32.9397 1.65344 32.9386C0.634923 32.938 0.0086206 32.3197 0.00862055 31.2989C0.00691997 26.3026 0.0097537 21.3064 0.0103203 16.3107C0.0103202 15.1017 0.0318582 13.8922 0.00068469 12.6844C-0.0265212 11.6228 0.759616 10.9619 1.71182 10.975C4.2142 11.0095 6.71714 10.9863 9.22008 10.9869C10.2964 10.9874 10.9102 11.5979 10.9102 12.6702C10.9108 15.7774 10.9108 18.8845 10.9102 21.9916ZM5.59263 14.9532C4.12691 14.951 2.93722 16.1276 2.93155 17.5854C2.92588 19.0653 4.10481 20.2533 5.58243 20.2573C7.05324 20.2612 8.25144 19.0636 8.24747 17.5945C8.24407 16.1373 7.05608 14.9549 5.59263 14.9532ZM5.59886 23.6246C4.13201 23.6212 2.94062 24.7944 2.93212 26.2511C2.92305 27.7275 4.10594 28.9246 5.57789 28.9291C7.04984 28.9337 8.24804 27.7417 8.2486 26.272C8.2486 24.8165 7.05948 23.628 5.59886 23.6246Z" fill="white"/>
<path d="M41.9055 21.3249C41.8635 29.1784 39.9228 35.8143 36.0103 41.8654C35.6464 42.4282 35.257 42.974 34.8671 43.5193C34.5049 44.0254 33.9149 44.1433 33.4569 43.818C32.9853 43.4836 32.9043 42.8816 33.2778 42.3692C35.7722 38.947 37.599 35.2022 38.7127 31.1145C39.7551 27.2898 40.1292 23.3999 39.8395 19.4455C39.3742 13.0917 37.3054 7.30937 33.6575 2.08981C33.3957 1.71516 33.3112 1.33371 33.5419 0.926754C33.7482 0.562874 34.0804 0.410976 34.4953 0.446682C34.8444 0.476723 35.0745 0.683033 35.2678 0.959629C36.9653 3.38208 38.3591 5.96721 39.432 8.72464C40.5922 11.7048 41.3494 14.7859 41.6787 17.965C41.8165 19.2964 41.8607 20.638 41.9055 21.3249Z" fill="white"/>
<path d="M33.1942 22.3662C33.1483 27.9644 31.4116 33.4033 27.9202 38.2754C27.7337 38.5355 27.5314 38.7674 27.1975 38.824C26.7775 38.8949 26.4307 38.7662 26.1836 38.4126C25.9432 38.0685 25.967 37.6508 26.2108 37.271C26.8518 36.2701 27.5387 35.2935 28.1112 34.2546C29.7152 31.3447 30.6941 28.2251 31.0472 24.919C31.7404 18.4225 30.2418 12.4768 26.5293 7.09518C26.2272 6.65705 26.2068 6.25747 26.4647 5.88452C26.701 5.54275 27.1448 5.3506 27.5336 5.51157C27.7779 5.61246 28.0177 5.81141 28.1724 6.02848C29.3213 7.641 30.2684 9.36858 31.0341 11.1948C32.4794 14.6437 33.1823 18.2417 33.1942 22.3662Z" fill="white"/>
<path d="M25.7797 21.9705C25.7502 26.3897 24.4614 30.3998 21.8717 33.987C21.5798 34.3911 21.1848 34.5487 20.7704 34.4347C20.0852 34.2466 19.8551 33.4899 20.2484 32.8619C20.8634 31.8797 21.5158 30.9104 22.0225 29.8727C23.4888 26.8692 24.0198 23.6776 23.737 20.3512C23.4587 17.0717 22.3631 14.0847 20.4848 11.3846C20.2235 11.0093 20.1475 10.6256 20.3844 10.2209C20.5891 9.87179 20.911 9.71706 21.3146 9.74653C21.6501 9.7709 21.8904 9.95341 22.0786 10.2226C23.5483 12.3266 24.5997 14.6204 25.2027 17.1165C25.6057 18.7857 25.778 20.2962 25.7797 21.9705Z" fill="white"/>
<path d="M18.4146 21.9689C18.4004 24.7819 17.582 27.3359 15.9383 29.6223C15.4956 30.2378 14.7089 30.2707 14.2878 29.6999C14.0163 29.3315 14.0322 28.8996 14.3428 28.4672C15.1215 27.3835 15.7116 26.2057 16.0437 24.9128C16.8882 21.626 16.3997 18.5529 14.527 15.7099C14.434 15.5687 14.332 15.4265 14.2759 15.2695C14.1132 14.8126 14.3246 14.3122 14.7531 14.0911C15.1935 13.8644 15.7082 13.9829 16.0103 14.4034C16.6808 15.3352 17.2113 16.3435 17.6086 17.421C18.1561 18.906 18.4106 20.3524 18.4146 21.9689Z" fill="white"/>
</svg>
