<svg width="30" height="53" viewBox="0 0 30 53" fill="none" xmlns="http://www.w3.org/2000/svg">
<path d="M15.669 46.9796C18.7211 46.9796 20.248 45.5381 20.248 42.4852L20.248 38.4995C20.248 36.8033 18.9759 34.5984 16.5171 31.9694L20.7567 27.8145C24.0636 31.2915 25.7598 34.3436 25.7598 37.0572L25.7598 42.993C25.7598 45.8767 25.1664 48.0807 23.9789 49.947C22.6222 51.9818 20.5028 53 17.7037 53L12.7006 53C9.98707 53 7.86682 51.9826 6.42541 49.947C5.3234 48.0816 4.72921 45.8767 4.72921 42.993L4.72921 37.0572C4.72921 34.0888 6.84945 30.6127 10.9198 26.4568L15.2449 22.3865C18.5518 18.9941 20.248 16.3651 20.248 14.415L20.248 10.514C20.248 7.46099 18.722 5.93494 15.669 5.93494L14.7354 5.93494C11.767 5.93494 10.241 7.46099 10.241 10.514L10.241 14.415C10.241 16.1959 11.5131 18.4008 13.9728 21.0297L9.64765 25.1847C6.42541 21.623 4.72921 18.57 4.72921 16.0266L4.72921 10.0053C4.72921 7.12245 5.3234 4.83206 6.42541 3.13674C7.8677 1.01737 9.98707 -6.89447e-07 12.7015 -5.70795e-07L17.7037 -3.52141e-07C20.5028 -2.2979e-07 22.623 1.01737 23.9789 3.13761C25.1664 4.83294 25.7598 7.12332 25.7598 10.0062L25.7598 16.0275C25.7598 18.8257 23.6395 22.3027 19.4854 26.4577L15.2458 30.6973C11.8534 34.0051 10.2418 36.6331 10.2418 38.4995L10.2418 42.4852C10.2418 45.5373 11.7679 46.9796 14.7362 46.9796L15.669 46.9796Z" fill="white"/>
<rect x="28.374" width="1.57633" height="52.807" fill="white"/>
<rect width="1.57633" height="52.807" fill="white"/>
</svg>
