<svg width="68" height="27" viewBox="0 0 68 27" fill="none" xmlns="http://www.w3.org/2000/svg">
<path d="M59.8427 12.8348C59.8427 8.96235 58.0138 7.02503 54.1403 7.02503H49.0833C46.9313 7.02503 44.1338 8.63909 40.7983 11.7587L35.5265 6.37962C39.9381 2.18394 43.8105 0.0318604 47.2534 0.0318604H54.7846C58.4434 0.0318604 61.2397 0.784647 63.6077 2.29133C66.1893 4.01277 67.4812 6.70177 67.4812 10.2532V16.6009C67.4812 20.0438 66.1904 22.7339 63.6077 24.5627C61.2409 25.9609 58.4434 26.7148 54.7846 26.7148H47.2534C43.4873 26.7148 39.0768 24.0247 33.804 18.8604L28.6396 13.3728C24.3355 9.17711 21 7.02503 18.5257 7.02503H13.5762C9.70262 7.02503 7.76641 8.96124 7.76641 12.8348V14.0193C7.76641 17.7855 9.70262 19.7217 13.5762 19.7217H18.5257C20.7852 19.7217 23.5827 18.1076 26.9182 14.9869L32.1899 20.4745C27.671 24.5627 23.7975 26.7148 20.5704 26.7148H12.9308C9.27309 26.7148 6.36711 25.9609 4.21614 24.5627C1.52714 22.7328 0.236328 20.0438 0.236328 16.5998V10.2532C0.236328 6.70177 1.52714 4.01167 4.21724 2.29133C6.36822 0.784647 9.2742 0.0318604 12.9319 0.0318604H20.5715C24.1218 0.0318604 28.5334 2.72197 33.8051 7.99258L39.1842 13.3717C43.381 17.6759 46.7154 19.7206 49.0833 19.7206H54.1403C58.0127 19.7206 59.8427 17.7843 59.8427 14.0182V12.8348Z" fill="white"/>
</svg>
