<svg width="464" height="132" viewBox="0 0 464 132" fill="none" xmlns="http://www.w3.org/2000/svg">
<g clip-path="url(#clip0_6_16)">
<path d="M19.6146 12.4071H0V4.52133H47.4851V12.4071H27.8686V74.1284H19.6146V12.4071Z" fill="black"/>
<path d="M48.6489 53.4841V54.1655C48.6489 63.6083 54.67 69.7391 63.0209 69.7391C68.8464 69.7391 73.508 66.6329 77.1005 60.2983L82.7323 64.0936C78.3632 71.9794 71.5655 75.9688 62.6317 75.9688C49.4255 75.9688 40.4917 66.431 40.4917 52.2184C40.4917 38.493 49.5224 28.9552 62.1475 28.9552C74.8675 28.9552 83.0248 37.6175 83.0248 52.0242V53.4841H48.6489ZM61.8551 35.4762C54.7669 35.4762 49.4255 40.0519 48.6489 47.4485H75.0612C74.577 39.7665 69.7218 35.4762 61.8551 35.4762Z" fill="black"/>
<path d="M94.5791 0.434784H101.96V74.1284H94.5791V0.434784Z" fill="black"/>
<path d="M118.079 0.434784H125.453V74.1284H118.073L118.079 0.434784Z" fill="black"/>
<path d="M145.558 53.4841V54.1655C145.558 63.6083 151.579 69.7391 159.93 69.7391C165.755 69.7391 170.417 66.6329 174.009 60.2983L179.641 64.0936C175.272 71.9794 168.474 75.9688 159.541 75.9688C146.334 75.9688 137.401 66.431 137.401 52.2184C137.401 38.493 146.433 28.9552 159.056 28.9552C171.776 28.9552 179.934 37.6175 179.934 52.0242V53.4841H145.558ZM158.764 35.4762C151.676 35.4762 146.334 40.0519 145.558 47.4485H171.97C171.486 39.7665 166.631 35.4762 158.764 35.4762Z" fill="black"/>
<path d="M191.197 30.6092H197.801V39.6617C201.675 32.2632 205.763 29.1493 212.367 29.1493C214.088 29.147 215.796 29.4432 217.416 30.0249L214.898 36.7419C213.437 36.1962 211.895 35.9002 210.335 35.8664C202.469 35.8664 198.586 41.5118 198.586 52.8998V74.1284H191.205L191.197 30.6092Z" fill="black"/>
<path d="M391.704 49.78C391.704 42.9853 388.505 39.5938 381.73 39.5938H372.882C369.119 39.5938 364.225 42.4223 358.39 47.893L349.167 38.46C356.883 31.1023 363.659 27.3283 369.682 27.3283H382.852C389.243 27.3283 394.146 28.6484 398.287 31.2906C402.803 34.3094 405.065 39.025 405.065 45.2528V56.3845C405.065 62.4221 402.805 67.1396 398.287 70.3467C394.146 72.7986 389.252 74.1207 382.852 74.1207H369.682C363.098 74.1207 355.378 69.4032 346.154 60.3468L337.131 50.7235C329.601 43.3658 323.768 39.5938 319.438 39.5938H310.779C304.002 39.5938 300.614 42.9892 300.615 49.78V51.8573C300.615 58.4579 304.002 61.8572 310.779 61.8572H319.438C323.39 61.8572 328.284 59.0267 334.117 53.554L343.328 63.1773C335.423 70.3467 328.646 74.1207 322.993 74.1207H309.63C303.239 74.1207 298.148 72.7986 294.385 70.3467C289.679 67.1396 287.413 62.4221 287.413 56.3845V45.2528C287.413 39.025 289.671 34.3094 294.385 31.2906C298.148 28.6478 303.23 27.327 309.63 27.3283H322.993C329.204 27.3283 336.922 32.0458 346.144 41.2905L355.556 50.7235C362.898 58.2715 368.726 61.8572 372.872 61.8572H381.721C388.499 61.8572 391.695 58.4598 391.695 51.8573V49.78M282.747 74.1284V61.4786H256.178V27.3283H239.552V74.1284H282.747ZM430.304 74.1284V64.0024H435.068C444.123 64.0024 451.208 62.3677 456.323 59.0985C461.438 55.8293 463.997 51.3176 464 45.5634C464 39.3511 461.46 34.7566 456.379 31.7798C451.299 28.8031 443.438 27.3147 432.796 27.3147H412.855V74.1284H430.304ZM430.304 36.6973H432.802C437.532 36.6973 440.968 37.3657 443.111 38.7027C445.254 40.0396 446.326 42.1673 446.326 45.0858C446.326 48.2464 445.254 50.5423 443.111 51.9738C440.968 53.4052 437.532 54.1189 432.802 54.1151H430.304V36.6973Z" fill="url(#paint0_linear_6_16)"/>
<path d="M391.704 49.78C391.704 42.9853 388.505 39.5938 381.73 39.5938H372.882C369.119 39.5938 364.225 42.4223 358.39 47.893L349.167 38.46C356.883 31.1023 363.659 27.3283 369.682 27.3283H382.852C389.243 27.3283 394.146 28.6484 398.287 31.2906C402.803 34.3094 405.065 39.025 405.065 45.2528V56.3845C405.065 62.4221 402.805 67.1396 398.287 70.3467C394.146 72.7986 389.252 74.1207 382.852 74.1207H369.682C363.098 74.1207 355.378 69.4032 346.154 60.3468L337.131 50.7235C329.601 43.3658 323.768 39.5938 319.438 39.5938H310.779C304.002 39.5938 300.614 42.9892 300.615 49.78V51.8573C300.615 58.4579 304.002 61.8572 310.779 61.8572H319.438C323.39 61.8572 328.284 59.0267 334.117 53.554L343.328 63.1773C335.423 70.3467 328.646 74.1207 322.993 74.1207H309.63C303.239 74.1207 298.148 72.7986 294.385 70.3467C289.679 67.1396 287.413 62.4221 287.413 56.3845V45.2528C287.413 39.025 289.671 34.3094 294.385 31.2906C298.148 28.6478 303.23 27.327 309.63 27.3283H322.993C329.204 27.3283 336.922 32.0458 346.144 41.2905L355.556 50.7235C362.898 58.2715 368.726 61.8572 372.872 61.8572H381.721C388.499 61.8572 391.695 58.4598 391.695 51.8573V49.78M282.747 74.1284V61.4786H256.178V27.3283H239.552V74.1284H282.747ZM430.304 74.1284V64.0024H435.068C444.123 64.0024 451.208 62.3677 456.323 59.0985C461.438 55.8293 463.997 51.3176 464 45.5634C464 39.3511 461.46 34.7566 456.379 31.7798C451.299 28.8031 443.438 27.3147 432.796 27.3147H412.855V74.1284H430.304ZM430.304 36.6973H432.802C437.532 36.6973 440.968 37.3657 443.111 38.7027C445.254 40.0396 446.326 42.1673 446.326 45.0858C446.326 48.2464 445.254 50.5423 443.111 51.9738C440.968 53.4052 437.532 54.1189 432.802 54.1151H430.304V36.6973Z" fill="url(#paint1_linear_6_16)"/>
<path d="M157.654 124.604H154.943V101.754H159.732C162.056 101.754 163.939 101.818 165.469 102.903C166.904 103.926 167.793 105.815 167.793 108.048C167.793 110.28 166.9 112.169 165.469 113.192C163.939 114.277 162.091 114.342 159.732 114.342H157.66L157.654 124.604ZM158.961 111.888C162.881 111.888 164.857 111.377 164.857 108.213C164.857 104.891 162.92 104.25 158.961 104.25H157.654V111.888H158.961Z" fill="black"/>
<path d="M170.276 110.315H172.708V112.521C173.92 110.667 175.64 109.803 177.871 109.803C181.187 109.803 183.226 111.657 183.226 114.883V124.59H180.803V116.196C180.803 113.32 179.562 111.913 177.011 111.913C175.576 111.913 174.333 112.457 173.537 113.447C172.708 114.47 172.708 115.652 172.708 117.226V124.604H170.285L170.276 110.315Z" fill="black"/>
<path d="M189.464 117.824V118.048C189.464 121.154 191.439 123.161 194.182 123.161C196.093 123.161 197.623 122.138 198.803 120.055L200.652 121.301C199.217 123.889 196.986 125.2 194.054 125.2C189.72 125.2 186.788 122.068 186.788 117.403C186.788 112.899 189.751 109.768 193.895 109.768C198.071 109.768 200.747 112.61 200.747 117.339V117.819L189.464 117.824ZM193.798 111.913C191.474 111.913 189.72 113.416 189.464 115.844H198.135C197.974 113.32 196.38 111.913 193.798 111.913Z" fill="black"/>
<path d="M206.644 117.345C206.644 121.115 207.568 122.872 210.692 122.872C213.816 122.872 214.645 121.115 214.708 117.345V110.315H217.131V118.663C217.131 122.977 214.898 125.213 210.628 125.213C206.485 125.213 204.221 123.041 204.221 118.855V110.313H206.644V117.345Z" fill="black"/>
<path d="M241.673 116.196C241.673 113.32 240.557 111.913 238.134 111.913C237.516 111.9 236.903 112.032 236.344 112.298C235.785 112.564 235.296 112.958 234.916 113.447C234.31 114.246 234.141 115.141 234.141 116.324C234.141 116.611 234.174 116.906 234.174 117.217V124.594H231.751V116.196C231.751 113.32 230.636 111.913 228.213 111.913C227.59 111.9 226.972 112.031 226.407 112.297C225.843 112.563 225.348 112.957 224.961 113.447C224.357 114.223 224.229 115.108 224.229 116.196C224.229 116.514 224.26 116.865 224.26 117.217V124.594H221.837V110.315H224.26V112.521C225.409 110.7 227.033 109.803 229.17 109.803C231.465 109.803 233.122 110.793 233.949 112.715C235.193 110.733 236.854 109.803 239.018 109.803C242.174 109.803 244.086 111.657 244.086 114.883V124.59H241.673V116.196Z" fill="black"/>
<path d="M262.135 124.604H259.777V122.01C258.63 124.087 256.813 125.205 254.613 125.205C250.535 125.205 247.792 122.169 247.792 117.506C247.792 112.713 250.504 109.805 254.486 109.805C256.877 109.805 258.63 110.892 259.715 113V110.315H262.135V124.604ZM255.028 112.239C252.096 112.239 250.38 114.124 250.38 117.384C250.38 120.833 252.102 122.783 255.131 122.783C257.999 122.783 259.779 120.898 259.779 117.607C259.777 114.277 257.77 112.233 255.028 112.233V112.239Z" fill="black"/>
<path d="M264.781 112.328V110.315H267.396V104.565H269.818V110.315H272.495V112.328H269.818V124.604H267.396V112.334L264.781 112.328Z" fill="black"/>
<path d="M276.606 101.657C277.083 101.663 277.538 101.858 277.872 102.199C278.207 102.54 278.393 103 278.392 103.478C278.388 103.952 278.196 104.406 277.858 104.739C277.52 105.072 277.064 105.256 276.591 105.252C276.117 105.248 275.665 105.055 275.333 104.717C275.001 104.378 274.817 103.921 274.821 103.447C274.82 103.212 274.866 102.979 274.956 102.761C275.046 102.544 275.177 102.347 275.343 102.18C275.509 102.014 275.706 101.882 275.923 101.793C276.139 101.703 276.372 101.657 276.606 101.657ZM275.396 110.315H277.817V124.604H275.396V110.315Z" fill="black"/>
<path d="M293.914 124.054C292.607 124.831 290.982 125.205 289.133 125.205C284.701 125.205 281.802 122.099 281.802 117.601C281.802 112.942 284.957 109.805 289.227 109.805C290.76 109.796 292.275 110.134 293.659 110.795V113.416C292.493 112.618 291.117 112.184 289.706 112.169C286.582 112.169 284.415 114.277 284.415 117.665C284.415 120.54 286.545 122.841 289.514 122.841C291.044 122.841 292.419 122.297 293.914 121.212V124.054Z" fill="black"/>
<path d="M304.463 112.328V110.315H307.078V104.565H309.501V110.315H312.177V112.328H309.501V124.604H307.078V112.334L304.463 112.328Z" fill="black"/>
<path d="M317.183 117.345C317.183 121.115 318.107 122.872 321.231 122.872C324.355 122.872 325.184 121.115 325.248 117.345V110.315H327.668V118.663C327.668 122.977 325.437 125.213 321.167 125.213C317.024 125.213 314.76 123.041 314.76 118.855V110.313H317.183V117.345Z" fill="black"/>
<path d="M334.807 100.41V113C335.891 110.892 337.644 109.805 340.003 109.805C343.987 109.805 346.727 112.717 346.727 117.506C346.727 122.165 343.987 125.205 339.906 125.205C337.708 125.205 335.827 124.054 334.712 122.01V124.604H332.388V100.41H334.807ZM339.494 122.841C342.329 122.841 344.142 120.797 344.142 117.211C344.142 114.048 342.399 112.227 339.552 112.227C336.683 112.227 334.71 114.305 334.71 117.531C334.712 120.925 336.56 122.841 339.494 122.841Z" fill="black"/>
<path d="M352.043 117.824V118.048C352.043 121.154 354.019 123.161 356.761 123.161C358.672 123.161 360.202 122.138 361.382 120.055L363.231 121.301C361.796 123.889 359.565 125.2 356.633 125.2C352.299 125.2 349.365 122.068 349.365 117.403C349.365 112.899 352.33 109.768 356.474 109.768C360.65 109.768 363.326 112.61 363.326 117.339V117.819L352.043 117.824ZM356.377 111.913C354.053 111.913 352.299 113.416 352.043 115.844H360.712C360.565 113.32 358.967 111.913 356.385 111.913H356.377Z" fill="black"/>
<path d="M376.976 120.797C377.774 122.33 378.984 123.064 380.609 123.064C382.234 123.064 383.288 122.169 383.288 120.929C383.288 119.841 382.554 119.267 381.057 118.754C377.549 117.541 375.44 116.933 375.44 114.122C375.44 111.629 377.449 109.808 380.476 109.808C382.931 109.808 384.779 110.832 385.544 112.653L383.568 113.866C382.987 112.555 381.825 111.822 380.317 111.822C378.884 111.822 377.894 112.717 377.894 113.957C377.894 115.458 379.201 115.65 381.56 116.417C384.333 117.312 385.705 118.333 385.705 120.666C385.705 123.318 383.663 125.203 380.508 125.203C377.863 125.203 376.013 124.213 374.892 122.2L376.976 120.797Z" fill="black"/>
<path d="M392.657 123.192L387.08 110.315H389.886L394.028 120.571L398.427 110.315H401.105L391.551 131.563H388.801L392.657 123.192Z" fill="black"/>
<path d="M403.973 120.797C404.769 122.33 405.981 123.064 407.606 123.064C409.231 123.064 410.285 122.169 410.285 120.929C410.285 119.841 409.551 119.267 408.054 118.754C404.546 117.541 402.437 116.933 402.437 114.122C402.437 111.629 404.446 109.808 407.473 109.808C409.928 109.808 411.776 110.832 412.541 112.653L410.565 113.866C409.984 112.555 408.813 111.822 407.314 111.822C405.879 111.822 404.891 112.717 404.891 113.957C404.891 115.458 406.198 115.65 408.557 116.417C411.33 117.312 412.702 118.333 412.702 120.666C412.702 123.318 410.66 125.203 407.505 125.203C404.86 125.203 403.01 124.213 401.889 122.2L403.973 120.797Z" fill="black"/>
<path d="M414.141 112.328V110.315H416.755V104.565H419.176V110.315H421.854V112.328H419.176V124.604H416.755V112.334L414.141 112.328Z" fill="black"/>
<path d="M426.061 117.824V118.048C426.061 121.154 428.038 123.161 430.779 123.161C432.692 123.161 434.222 122.138 435.401 120.055L437.257 121.303C435.822 123.891 433.591 125.201 430.658 125.201C426.324 125.201 423.392 122.07 423.392 117.405C423.392 112.901 426.355 109.77 430.5 109.77C434.675 109.77 437.352 112.612 437.352 117.341V117.82L426.061 117.824ZM430.397 111.913C428.073 111.913 426.316 113.416 426.061 115.844H434.739C434.572 113.32 432.979 111.913 430.397 111.913Z" fill="black"/>
<path d="M460.836 116.196C460.836 113.32 459.72 111.913 457.297 111.913C456.679 111.9 456.066 112.032 455.507 112.298C454.948 112.564 454.459 112.957 454.079 113.447C453.472 114.246 453.304 115.141 453.304 116.324C453.304 116.611 453.335 116.906 453.335 117.217V124.594H450.914V116.196C450.914 113.32 449.797 111.913 447.376 111.913C446.752 111.9 446.134 112.031 445.57 112.297C445.006 112.563 444.511 112.957 444.124 113.447C443.518 114.223 443.39 115.108 443.39 116.196C443.39 116.514 443.423 116.865 443.423 117.217V124.594H441V110.315H443.423V112.521C444.57 110.7 446.196 109.803 448.33 109.803C450.625 109.803 452.283 110.793 453.112 112.715C454.356 110.733 456.017 109.803 458.18 109.803C461.335 109.803 463.249 111.657 463.249 114.883V124.59H460.826L460.836 116.196Z" fill="black"/>
</g>
<defs>
<linearGradient id="paint0_linear_6_16" x1="239.56" y1="50.7255" x2="464" y2="50.7255" gradientUnits="userSpaceOnUse">
<stop stop-color="#2E327E"/>
<stop offset="0.5" stop-color="#A32281"/>
<stop offset="1" stop-color="#E1161C"/>
</linearGradient>
<linearGradient id="paint1_linear_6_16" x1="239.56" y1="50.7255" x2="464" y2="50.7255" gradientUnits="userSpaceOnUse">
<stop stop-color="#2E327E"/>
<stop offset="0.5" stop-color="#A32281"/>
<stop offset="1" stop-color="#E1161C"/>
</linearGradient>
<clipPath id="clip0_6_16">
<rect width="464" height="131.13" fill="white" transform="translate(0 0.434784)"/>
</clipPath>
</defs>
</svg>
