<svg width="21" height="25" viewBox="0 0 21 25" fill="none" xmlns="http://www.w3.org/2000/svg">
<g filter="url(#filter0_d_258_78)">
<path d="M10.4255 16.3314C8.90444 16.3314 7.38335 16.333 5.86225 16.3309C4.75208 16.3293 4.00746 15.6039 4.00422 14.5016C3.99774 12.4015 3.99936 10.3008 4.00476 8.20063C4.00692 7.29487 4.65002 6.57706 5.56041 6.46128C5.73374 6.4392 5.76128 6.36543 5.76074 6.21949C5.75642 5.54637 5.75588 4.87325 5.75966 4.20012C5.771 2.06659 7.16844 0.392395 9.28296 0.0956822C10.1939 -0.0319421 11.1378 -0.056713 12.0476 0.176996C13.8381 0.636874 15.0693 2.23406 15.0919 4.09242C15.1 4.78332 15.0995 5.47475 15.0914 6.16564C15.0892 6.35789 15.1249 6.44243 15.3474 6.46828C16.1703 6.56359 16.8387 7.29488 16.8431 8.12093C16.8549 10.2932 16.856 12.465 16.8436 14.6373C16.8382 15.5695 16.0634 16.3223 15.1233 16.3282C13.5574 16.3379 11.9914 16.3309 10.425 16.3309C10.4255 16.3309 10.4255 16.3314 10.4255 16.3314ZM10.4326 7.6029C8.92064 7.6029 7.40873 7.60182 5.89735 7.60344C5.3806 7.60397 5.18189 7.80591 5.18135 8.32341C5.18081 10.3606 5.18081 12.3977 5.18243 14.4348C5.18297 14.9771 5.37358 15.1672 5.91139 15.1672C8.92604 15.1677 11.9401 15.1683 14.9548 15.1677C15.4748 15.1677 15.6692 14.9733 15.6697 14.4483C15.6713 12.4203 15.6713 10.3918 15.6708 8.3638C15.6708 7.78976 15.4861 7.60451 14.9143 7.60397C13.4202 7.6029 11.9266 7.60344 10.4326 7.6029ZM6.94057 6.42574C9.26784 6.42574 11.5838 6.42574 13.9046 6.42574C13.9143 6.37404 13.9267 6.33958 13.9267 6.30565C13.9278 5.53398 13.9548 4.7607 13.9224 3.99011C13.8614 2.52862 12.742 1.36008 11.276 1.23568C10.7047 1.18722 10.1253 1.2093 9.55132 1.23622C8.98868 1.26261 8.48704 1.48339 8.04697 1.83503C7.39631 2.35469 6.99187 3.02566 6.94975 3.85548C6.9071 4.70362 6.94057 5.55552 6.94057 6.42574Z" fill="white"/>
<path d="M9.88841 12.2142C9.88841 12.1344 9.88447 12.054 9.8889 11.9747C9.90517 11.7038 9.85785 11.4909 9.65278 11.2758C9.22933 10.8314 9.27172 10.1064 9.69172 9.68218C10.1112 9.25848 10.7723 9.26966 11.1859 9.70719C11.595 10.1405 11.6083 10.8596 11.1824 11.3046C11.0114 11.4834 10.9458 11.6559 10.9616 11.9023C10.9788 12.1759 10.9665 12.4522 10.9635 12.7274C10.9591 13.1319 10.7565 13.3837 10.4356 13.3879C10.1078 13.3922 9.90073 13.15 9.89088 12.746C9.88644 12.5687 9.89038 12.391 9.89038 12.2137C9.88989 12.2142 9.8889 12.2142 9.88841 12.2142Z" fill="white"/>
</g>
<defs>
<filter id="filter0_d_258_78" x="0" y="0" width="20.8524" height="24.3334" filterUnits="userSpaceOnUse" color-interpolation-filters="sRGB">
<feFlood flood-opacity="0" result="BackgroundImageFix"/>
<feColorMatrix in="SourceAlpha" type="matrix" values="0 0 0 0 0 0 0 0 0 0 0 0 0 0 0 0 0 0 127 0" result="hardAlpha"/>
<feOffset dy="4"/>
<feGaussianBlur stdDeviation="2"/>
<feComposite in2="hardAlpha" operator="out"/>
<feColorMatrix type="matrix" values="0 0 0 0 0 0 0 0 0 0 0 0 0 0 0 0 0 0 0.25 0"/>
<feBlend mode="normal" in2="BackgroundImageFix" result="effect1_dropShadow_258_78"/>
<feBlend mode="normal" in="SourceGraphic" in2="effect1_dropShadow_258_78" result="shape"/>
</filter>
</defs>
</svg>
