<svg width="42" height="42" viewBox="0 0 42 42" fill="none" xmlns="http://www.w3.org/2000/svg">
<path d="M0.0705874 14.1564C0.0802648 12.5815 0.346106 11.0506 0.868681 9.56658C1.58708 7.52424 2.70111 5.73104 4.23354 4.20243C6.78778 1.65436 9.86517 0.232036 13.4543 0.026888C17.7493 -0.218833 21.4409 1.22178 24.5001 4.26015C25.4348 5.18874 26.2113 6.24592 26.8358 7.40938C26.9399 7.6031 27.068 7.69567 27.2877 7.72767C30.7852 8.23568 33.8416 9.68829 36.4402 12.0906C39.1686 14.613 40.9174 17.7045 41.642 21.3566C42.3775 25.0636 41.995 28.6665 40.3521 32.0735C37.8628 37.2376 33.7943 40.5006 28.1929 41.6286C22.8538 42.7041 18.0055 41.4354 13.8021 37.9331C10.6587 35.3147 8.72438 31.9438 7.98207 27.9111C7.8705 27.3048 7.63312 26.9653 7.10258 26.6459C3.44285 24.4436 1.17095 21.2223 0.327321 17.0205C0.139467 16.0839 0.104743 15.1164 0 14.1633C0.0233394 14.161 0.0472481 14.1587 0.0705874 14.1564ZM10.0411 28.0208C11.253 34.2524 17.3008 40.4594 25.7997 39.9474C33.8706 39.4611 40.4415 32.5175 39.965 23.8904C39.5307 16.029 33.438 10.8472 27.9572 9.90544C29.4298 15.373 28.4644 20.3132 24.4523 24.3778C20.4396 28.4408 15.5281 29.4614 10.0411 28.0208ZM15.3038 13.3324C15.3038 13.1427 15.3038 12.9821 15.3038 12.8215C15.3038 10.4226 15.3044 8.02368 15.3027 5.62475C15.3027 5.49218 15.2987 5.35732 15.2742 5.2276C15.1626 4.63787 14.5456 4.30129 13.9888 4.51958C13.5721 4.68301 13.3553 5.04302 13.3536 5.59733C13.3501 6.84422 13.3513 8.09168 13.3513 9.33857C13.3513 10.938 13.349 12.5369 13.3524 14.1364C13.3541 14.8524 13.7441 15.2822 14.4055 15.2856C15.6761 15.2924 16.9472 15.2982 18.2178 15.2793C18.441 15.2759 18.6903 15.1953 18.8776 15.073C19.2334 14.8404 19.3467 14.4027 19.2157 14.0113C19.0774 13.5975 18.7188 13.3398 18.2298 13.3353C17.3668 13.3267 16.5038 13.3324 15.6408 13.3324C15.5383 13.3324 15.4359 13.3324 15.3038 13.3324Z" fill="white"/>
</svg>
