<svg width="107" height="19" viewBox="0 0 107 19" fill="none" xmlns="http://www.w3.org/2000/svg">
<path d="M4.45408 3.44435H0V1.65894H10.7829V3.44435H6.32842V17.4186H4.45408V3.44435Z" fill="#060606"/>
<path d="M11.7035 13.091V13.2473C11.7035 15.413 12.9951 16.8192 14.7865 16.8192C16.0362 16.8192 17.0361 16.1068 17.8068 14.6539L19.0149 15.5244C18.0777 17.333 16.6194 18.248 14.703 18.248C11.8701 18.248 9.95361 16.0605 9.95361 12.8007C9.95361 9.65267 11.8908 7.46509 14.5991 7.46509C17.3278 7.46509 19.0776 9.45185 19.0776 12.7562V13.091H11.7035ZM14.5364 8.96073C13.0159 8.96073 11.8701 10.0102 11.7035 11.7067H17.3693C17.2655 9.94476 16.2239 8.96073 14.5364 8.96073Z" fill="#060606"/>
<path d="M22.3955 0H24.0544V17.4186H22.3955V0Z" fill="#060606"/>
<path d="M27.3734 0H29.031V17.4186H27.3721L27.3734 0Z" fill="#060606"/>
<path d="M33.4285 13.091V13.2473C33.4285 15.413 34.8375 16.8192 36.7918 16.8192C38.155 16.8192 39.2459 16.1068 40.0866 14.6539L41.4046 15.5244C40.3821 17.333 38.7914 18.248 36.7007 18.248C33.6102 18.248 31.5195 16.0605 31.5195 12.8007C31.5195 9.65267 33.6333 7.46509 36.5874 7.46509C39.5641 7.46509 41.473 9.45185 41.473 12.7562V13.091H33.4285ZM36.5189 8.96073C34.8602 8.96073 33.6102 10.0102 33.4285 11.7067H39.6094C39.4961 9.94476 38.3599 8.96073 36.5189 8.96073Z" fill="#060606"/>
<path d="M43.9614 7.78815H45.4239V9.79139C46.2817 8.15418 47.187 7.46509 48.6495 7.46509C49.0306 7.46457 49.4089 7.53012 49.7676 7.65884L49.2101 9.14527C48.8865 9.0245 48.5449 8.959 48.1996 8.95152C46.4575 8.95152 45.5976 10.2008 45.5976 12.7209V17.4186H43.9631L43.9614 7.78815Z" fill="#060606"/>
<path d="M90.1681 11.8102C90.1681 10.2452 89.4232 9.46397 87.846 9.46397H85.7859C84.9098 9.46397 83.7704 10.1155 82.4118 11.3756L80.2647 9.20283C82.061 7.50807 83.6387 6.63878 85.041 6.63878H88.1071C89.595 6.63878 90.7367 6.94285 91.7007 7.55145C92.7522 8.24679 93.2788 9.33295 93.2788 10.7675V13.3315C93.2788 14.7222 92.7526 15.8088 91.7007 16.5475C90.7367 17.1123 89.5973 17.4168 88.1071 17.4168H85.041C83.508 17.4168 81.7107 16.3302 79.5631 14.2442L77.4624 12.0276C75.7093 10.3328 74.3512 9.46397 73.343 9.46397H71.3271C69.7493 9.46397 68.9605 10.2461 68.9608 11.8102V12.2887C68.9608 13.8091 69.7494 14.5921 71.3271 14.5921H73.343C74.2633 14.5921 75.4027 13.9401 76.7608 12.6795L78.9052 14.8961C77.0647 16.5475 75.487 17.4168 74.1709 17.4168H71.0597C69.5718 17.4168 68.3864 17.1123 67.5103 16.5475C66.4146 15.8088 65.8871 14.7222 65.8871 13.3315V10.7675C65.8871 9.33295 66.4128 8.24679 67.5103 7.55145C68.3865 6.9427 69.5697 6.63848 71.0597 6.63878H74.1709C75.6169 6.63878 77.4137 7.72539 79.5609 9.85479L81.7522 12.0276C83.4615 13.7662 84.8183 14.5921 85.7836 14.5921H87.8438C89.4219 14.5921 90.1659 13.8095 90.1659 12.2887V11.8102M64.8009 17.4186V14.5049H58.6151V6.63878H54.7441V17.4186H64.8009ZM99.1549 17.4186V15.0862H100.264C102.372 15.0862 104.022 14.7097 105.213 13.9566C106.404 13.2036 106.999 12.1644 107 10.839C107 9.40808 106.409 8.34978 105.226 7.66413C104.043 6.97848 102.213 6.63565 99.7352 6.63565H95.0923V17.4186H99.1549ZM99.1549 8.7968H99.7365C100.838 8.7968 101.638 8.95078 102.137 9.25872C102.636 9.56667 102.885 10.0568 102.885 10.729C102.885 11.457 102.636 11.9858 102.137 12.3155C101.638 12.6453 100.838 12.8097 99.7365 12.8088H99.1549V8.7968Z" fill="#060606"/>
</svg>
