<svg width="129" height="22" viewBox="0 0 129 22" fill="none" xmlns="http://www.w3.org/2000/svg">
<path d="M5.36988 4.1525H0V2H13V4.1525H7.62959V21H5.36988V4.1525Z" fill="white"/>
<path d="M14.1096 15.7826V15.9711C14.1096 18.5821 15.6668 20.2774 17.8266 20.2774C19.3332 20.2774 20.5388 19.4185 21.4679 17.6668L22.9244 18.7163C21.7944 20.8968 20.0364 22 17.7259 22C14.3105 22 12 19.3626 12 15.4326C12 11.6374 14.3355 9 17.6007 9C20.8904 9 23 11.3953 23 15.3789V15.7826H14.1096ZM17.525 10.8032C15.6919 10.8032 14.3105 12.0684 14.1096 14.1137H20.9404C20.8152 11.9895 19.5596 10.8032 17.525 10.8032Z" fill="white"/>
<path d="M26.9999 0H28.9999V21H26.9999V0Z" fill="white"/>
<path d="M33.0016 0H35V21H33L33.0016 0Z" fill="white"/>
<path d="M40.3014 15.7826V15.9711C40.3014 18.5821 42.0002 20.2774 44.3563 20.2774C45.9998 20.2774 47.315 19.4185 48.3286 17.6668L49.9175 18.7163C48.6848 20.8968 46.767 22 44.2464 22C40.5205 22 38 19.3626 38 15.4326C38 11.6374 40.5484 9 44.1098 9C47.6986 9 50 11.3953 50 15.3789V15.7826H40.3014ZM44.0273 10.8032C42.0275 10.8032 40.5205 12.0684 40.3014 14.1137H47.7532C47.6166 11.9895 46.2468 10.8032 44.0273 10.8032Z" fill="white"/>
<path d="M53.0001 9.38949H54.7633V11.8046C55.7974 9.83077 56.889 9 58.6521 9C59.1116 8.99938 59.5676 9.07841 60.0001 9.23359L59.3279 11.0256C58.9378 10.88 58.526 10.8011 58.1097 10.7921C56.0094 10.7921 54.9727 12.2982 54.9727 15.3364V21H53.0022L53.0001 9.38949Z" fill="white"/>
<path d="M108.708 14.2385C108.708 12.3517 107.809 11.4098 105.908 11.4098H103.424C102.368 11.4098 100.994 12.1953 99.3565 13.7145L96.7679 11.095C98.9336 9.0518 100.836 8.00377 102.526 8.00377H106.223C108.017 8.00377 109.393 8.37037 110.555 9.10409C111.823 9.9424 112.458 11.2519 112.458 12.9813V16.0726C112.458 17.7492 111.823 19.0592 110.555 19.9498C109.393 20.6307 108.019 20.9978 106.223 20.9978H102.526C100.678 20.9978 98.5112 19.6878 95.9221 17.1729L93.3894 14.5005C91.2759 12.4573 89.6386 11.4098 88.4231 11.4098H85.9926C84.0904 11.4098 83.1395 12.3527 83.1398 14.2385V14.8154C83.1398 16.6483 84.0906 17.5923 85.9926 17.5923H88.4231C89.5326 17.5923 90.9062 16.8063 92.5436 15.2866L95.1289 17.9589C92.91 19.9498 91.0079 20.9978 89.4211 20.9978H85.6703C83.8764 20.9978 82.4473 20.6307 81.3911 19.9498C80.0701 19.0592 79.4341 17.7492 79.4341 16.0726V12.9813C79.4341 11.2519 80.068 9.9424 81.3911 9.10409C82.4475 8.37019 83.8739 8.00341 85.6703 8.00377H89.4211C91.1645 8.00377 93.3307 9.3138 95.9193 11.881L98.5612 14.5005C100.622 16.5966 102.258 17.5923 103.422 17.5923H105.905C107.808 17.5923 108.705 16.6489 108.705 14.8154V14.2385M78.1246 21V17.4872H70.6669V8.00377H66.0001V21H78.1246ZM119.542 21V18.188H120.879C123.421 18.188 125.409 17.7341 126.845 16.8262C128.281 15.9184 128.999 14.6655 129 13.0676C129 11.3425 128.287 10.0666 126.861 9.23994C125.435 8.41331 123.229 8 120.242 8H114.644V21H119.542ZM119.542 10.6055H120.243C121.571 10.6055 122.535 10.7911 123.137 11.1624C123.738 11.5337 124.039 12.1245 124.039 12.935C124.039 13.8126 123.738 14.4502 123.137 14.8477C122.535 15.2452 121.571 15.4434 120.243 15.4424H119.542V10.6055Z" fill="url(#paint0_linear_258_4)"/>
<defs>
<linearGradient id="paint0_linear_258_4" x1="66.0023" y1="14.5011" x2="129" y2="14.5011" gradientUnits="userSpaceOnUse">
<stop stop-color="#2E327E"/>
<stop offset="0.5" stop-color="#A32281"/>
<stop offset="1" stop-color="#E1161C"/>
</linearGradient>
</defs>
</svg>
