<svg width="22" height="16" viewBox="0 0 22 16" fill="none" xmlns="http://www.w3.org/2000/svg">
<path d="M21.3529 15.0956C21.2168 15.3844 21.0489 15.643 20.7112 15.7173C20.5989 15.7405 20.4845 15.7514 20.3699 15.7501C15.5915 15.7517 10.8131 15.7535 6.03461 15.7555C5.6166 15.7561 5.32961 15.5864 5.10744 15.2432C3.84157 13.2883 2.57266 11.3352 1.30069 9.38384C1.09654 9.06985 0.894819 8.75416 0.68712 8.44252C0.435809 8.06546 0.439451 7.69592 0.68712 7.31633C2.17426 5.03407 3.65968 2.75062 5.14339 0.465973C5.34978 0.148125 5.6321 0.00405086 6.01434 0.00442679C10.7523 0.00918855 15.49 0.00771617 20.2273 9.63341e-06C20.7612 -0.0014001 21.1463 0.151603 21.3529 0.663335V15.0956ZM19.5972 1.76575H19.4122C15.1282 1.76575 10.8443 1.7644 6.5603 1.7617C6.41387 1.7617 6.34653 1.82307 6.27481 1.93369C5.02563 3.85995 3.77352 5.78423 2.51849 7.70654C2.43678 7.83163 2.42688 7.91396 2.51289 8.04488C3.76985 9.96581 5.02186 11.89 6.26892 13.8175C6.35185 13.9456 6.4346 13.9973 6.5914 13.9971C10.855 13.992 15.1186 13.9906 19.3822 13.993H19.597L19.5972 1.76575Z" fill="white"/>
<path d="M12.7365 6.72922C12.8465 6.63005 12.9016 6.58244 12.9541 6.53232C13.8489 5.68588 14.7439 4.83959 15.6389 3.99345C16.0267 3.62873 16.546 3.61307 16.9108 3.94377C17.0686 4.08665 17.1646 4.27998 17.1801 4.48614C17.1956 4.6923 17.1295 4.89655 16.9947 5.05913C16.934 5.12981 16.869 5.19703 16.8 5.26042C15.9352 6.07989 15.0699 6.89906 14.2043 7.71794C14.1521 7.76734 14.103 7.81979 14.0435 7.87904C14.1038 7.93945 14.1533 7.99163 14.2057 8.04121C15.0854 8.87417 15.9658 9.70653 16.8469 10.5383C17.1232 10.7978 17.2549 11.0932 17.1422 11.4542C16.9644 12.0246 16.229 12.2319 15.7432 11.854C15.6797 11.8046 15.6214 11.7488 15.5635 11.6937C14.6929 10.8702 13.823 10.0462 12.954 9.22164C12.9015 9.1717 12.871 9.10099 12.8304 9.03995L12.7337 9.04076C12.6929 9.10135 12.6623 9.17152 12.61 9.22119C11.7271 10.0605 10.8429 10.8986 9.95734 11.7353C9.67186 12.0062 9.34713 12.1311 8.94985 11.9895C8.335 11.7701 8.18139 11.0605 8.65879 10.6003C9.35234 9.93165 10.0569 9.27319 10.7574 8.61107C11.01 8.37246 11.2643 8.13564 11.5295 7.88718C11.4685 7.82552 11.4199 7.77343 11.3681 7.72429C10.4689 6.87278 9.56639 6.02449 8.67128 5.16922C8.2056 4.72503 8.30965 4.05449 8.87606 3.79744C9.20382 3.64878 9.51655 3.68565 9.80411 3.895C9.87458 3.94628 9.93861 4.00616 10.0017 4.06585C10.8726 4.88926 11.7425 5.71333 12.6115 6.53805C12.6635 6.58754 12.6917 6.6595 12.7365 6.72922Z" fill="white"/>
</svg>
