<svg width="67" height="72" viewBox="0 0 67 72" fill="none" xmlns="http://www.w3.org/2000/svg">
<path d="M11.8084 21.5424C14.4139 23.2366 16.9483 24.88 19.5538 26.5778C17.485 30.2847 16.767 34.1544 17.7552 38.2594C18.4625 41.2097 19.9519 43.7256 22.2019 45.7057C27.2707 50.1691 34.1239 50.7628 39.6654 47.2985C45.0399 43.9392 47.7129 37.235 46.156 31.0159C44.7235 25.2963 39.6867 20.4818 34.6393 20.2103C34.6393 22.0709 34.6393 23.9244 34.6393 25.7814C34.6393 27.6348 34.6393 29.4883 34.6393 31.11C29.5101 25.8828 24.3524 20.6338 19.3689 15.5586C24.2244 10.6065 29.4105 5.31411 34.618 0C34.618 3.27607 34.618 6.73676 34.618 10.1576C48.7118 12.478 55.7 23.8809 55.9915 34.1399C56.2652 43.7473 49.9167 53.7638 40.9522 57.2643C30.9106 61.1847 20.0087 58.3322 13.344 50.0388C6.8569 41.9627 6.1922 30.5562 11.8084 21.5424Z" fill="#0062FF"/>
<path d="M67 53.0169C67 59.4561 67 65.6662 67 72C44.6679 72 22.3823 72 0 72C0 65.7426 0 59.5252 0 53.0496C3.61213 53.0496 7.22426 53.0169 10.8364 53.0933C11.2628 53.1005 11.7215 53.6496 12.0942 54.0241C23.4 65.379 40.8013 65.4117 52.143 54.1513C52.7772 53.5223 53.8702 53.0933 54.7661 53.0678C58.8082 52.9551 62.8503 53.0169 67 53.0169ZM58.4355 57.2273C58.4355 59.9251 58.4355 62.5321 58.4355 65.1463C60.0015 65.1463 61.4528 65.1463 62.9005 65.1463C62.9005 62.4266 62.9005 59.8233 62.9005 57.2273C61.3381 57.2273 59.9298 57.2273 58.4355 57.2273Z" fill="#0062FF"/>
</svg>
