<svg width="21" height="17" viewBox="0 0 21 17" fill="none" xmlns="http://www.w3.org/2000/svg">
<path d="M10.3883 16.3785C9.36991 16.3785 8.35138 16.3782 7.33298 16.3785C6.54723 16.3787 5.76149 16.3801 4.97575 16.3804C4.01769 16.3808 3.05964 16.3804 2.10145 16.3804C1.67175 16.3804 1.24192 16.3813 0.812221 16.3801C0.433194 16.3789 0.120832 16.1434 0.02379 15.7828C0.00631713 15.7182 0.000940849 15.6485 0.000940849 15.581C0.000134407 15.0414 0.00268814 14.5018 0.00255373 13.9621C0.00241933 13.3501 0 12.738 0 12.1257C0 11.5317 0.00255373 10.9375 0.00255373 10.3435C0.00255373 9.74037 0 9.13723 0 8.53409C0 7.92183 0.00255373 7.30971 0.00255373 6.69745C0.00255373 6.09894 0 5.50029 0 4.90177C0 4.31455 0.00228492 3.72719 0.00255373 3.13997C0.00268814 2.76812 0 2.39628 0 2.0243C0 1.58987 0.338437 1.24115 0.76827 1.23503C1.03682 1.23122 1.30549 1.22877 1.57391 1.23476C1.67068 1.23694 1.73372 1.20061 1.77565 1.12061C1.88479 0.912712 1.99043 0.703048 2.09903 0.494745C2.15535 0.386579 2.21194 0.278414 2.27376 0.173514C2.34258 0.0566408 2.43895 -0.000367101 2.58317 4.107e-05C3.59781 0.00425884 4.61244 0.00140164 5.62708 0.000857413C5.75033 0.000857413 5.87385 0.00888478 5.99657 0.000857413C6.13044 -0.0079863 6.22452 0.0520149 6.285 0.160861C6.3924 0.354062 6.48836 0.553658 6.59186 0.749172C6.66148 0.880739 6.73486 1.0104 6.80852 1.13979C6.84736 1.20796 6.90395 1.23571 6.98621 1.23449C7.2905 1.22986 7.59493 1.23326 7.89923 1.23326C8.36482 1.23326 8.83027 1.23285 9.29585 1.23285C10.0075 1.23285 10.7194 1.23326 11.431 1.23326C12.1316 1.23326 12.8321 1.23299 13.5326 1.23299C14.2443 1.23299 14.9561 1.2334 15.6678 1.23299C16.261 1.23258 16.8542 1.23054 17.4474 1.23054C18.0225 1.23054 18.5976 1.23231 19.1729 1.23258C19.4459 1.23272 19.719 1.23217 19.992 1.23041C20.359 1.22782 20.691 1.50279 20.7566 1.86851C20.7688 1.93709 20.7747 2.00784 20.7747 2.0775C20.7756 6.56793 20.7754 11.0584 20.7756 15.5488C20.7756 15.8448 20.6589 16.0804 20.4164 16.247C20.2647 16.3514 20.091 16.3806 19.911 16.3805C19.2373 16.3802 18.5635 16.3796 17.8897 16.3794C16.9495 16.3793 16.0093 16.3794 15.0692 16.3794C14.129 16.3794 13.1888 16.3794 12.2486 16.3794C11.6285 16.3794 11.0085 16.3794 10.3883 16.3794C10.3883 16.3791 10.3883 16.3787 10.3883 16.3785ZM10.3457 15.2252C13.224 15.2252 16.1025 15.2252 18.9808 15.2252C19.0077 15.2252 19.0346 15.2257 19.0615 15.2251C19.4498 15.2175 19.8023 14.9017 19.8348 14.5107C19.8551 14.2674 19.8477 14.0214 19.8481 13.7766C19.8488 13.4232 19.8438 13.0697 19.8438 12.7162C19.8438 12.3604 19.8485 12.0046 19.8485 11.6488C19.8485 11.2931 19.8438 10.9373 19.8438 10.5815C19.8438 10.2348 19.8479 9.88813 19.8487 9.54132C19.849 9.4054 19.8437 9.26934 19.844 9.13342C19.8448 8.77763 19.8485 8.42184 19.8485 8.06605C19.8485 7.71026 19.844 7.35447 19.844 6.99868C19.844 6.6429 19.8487 6.28711 19.8485 5.93132C19.8485 5.57553 19.8438 5.21974 19.8438 4.86395C19.8438 4.51265 19.8477 4.16149 19.8487 3.81019C19.849 3.67875 19.8405 3.54719 19.8445 3.41589C19.8574 3.00296 19.5861 2.64676 19.1851 2.57043C19.0765 2.54975 18.9624 2.55642 18.8508 2.55574C18.423 2.55343 17.9953 2.55261 17.5675 2.55247C17.2002 2.55247 16.833 2.55451 16.4657 2.55451C16.1118 2.55451 15.758 2.55288 15.4041 2.55288C15.0525 2.55288 14.7009 2.55465 14.3493 2.55465C13.9954 2.55465 13.6416 2.55275 13.2877 2.55275C12.9361 2.55275 12.5845 2.55451 12.2329 2.55451C11.879 2.55451 11.5253 2.55275 11.1714 2.55275C10.8198 2.55275 10.4682 2.55465 10.1165 2.55451C9.76265 2.55451 9.40889 2.55261 9.055 2.55261C8.70339 2.55261 8.35178 2.55451 8.00017 2.55451C7.64628 2.55451 7.29252 2.55275 6.93862 2.55275C6.58702 2.55275 6.23541 2.55465 5.8838 2.55465C5.52991 2.55465 5.17615 2.55261 4.82225 2.55261C4.47064 2.55261 4.11904 2.55451 3.76743 2.55451C3.41353 2.55451 3.05977 2.55261 2.70588 2.55261C2.35427 2.55261 2.00253 2.55955 1.65106 2.55329C1.21275 2.54553 0.823915 2.93126 0.828753 3.3748C0.832517 3.72393 0.830635 4.07318 0.830501 4.42244C0.830232 5.0166 0.829022 5.61063 0.829022 6.20479C0.829022 6.79895 0.830501 7.39298 0.830501 7.98714C0.830501 8.58348 0.829022 9.17995 0.829022 9.77629C0.829022 10.6086 0.830232 11.4408 0.830635 12.2729C0.830904 12.9896 0.82956 13.7062 0.832517 14.4226C0.832786 14.5006 0.847436 14.5816 0.871091 14.656C0.981305 15.0016 1.29205 15.2243 1.65643 15.2243C4.55277 15.2244 7.4491 15.2243 10.3453 15.2243L10.3457 15.2252Z" fill="white"/>
<path d="M7.39224 7.59598C6.82322 7.59598 6.2542 7.59598 5.68531 7.59598C5.59514 7.59598 5.59514 7.59626 5.59514 7.68856C5.59514 8.82032 5.59514 9.95208 5.59514 11.0838C5.59514 11.1855 5.59486 11.1883 5.49424 11.1862C5.15336 11.1791 4.82153 11.1194 4.49584 11.0177C4.04611 10.8773 3.64334 10.6509 3.28532 10.3489C2.77789 9.92084 2.41095 9.39254 2.19465 8.76204C2.0139 8.23485 1.95592 7.69386 2.02714 7.142C2.09292 6.63196 2.25709 6.15469 2.52885 5.71521C2.83378 5.22218 3.23264 4.82383 3.72432 4.52015C4.09698 4.28995 4.50169 4.14062 4.93246 4.05822C5.32896 3.98223 5.72628 3.97498 6.12361 4.03535C6.69473 4.12208 7.21818 4.33094 7.68867 4.67032C8.07987 4.95252 8.40124 5.29929 8.65711 5.70684C8.82463 5.97371 8.94671 6.26164 9.03925 6.5628C9.13402 6.8715 9.17555 7.18787 9.18879 7.50954C9.19158 7.57632 9.17625 7.59821 9.10642 7.59793C8.53517 7.59529 7.96378 7.59654 7.39252 7.59654V7.59612L7.39224 7.59598Z" fill="white"/>
<path d="M10.5882 13.5833C9.77043 13.5833 8.95254 13.5835 8.13479 13.5833C7.30798 13.5831 6.48117 13.5822 5.65435 13.5822C4.832 13.5822 4.00979 13.583 3.18744 13.5833C2.9487 13.5834 2.70982 13.5824 2.47108 13.5841C2.41497 13.5845 2.3978 13.5743 2.39889 13.5399C2.40186 13.4368 2.40037 13.3338 2.39726 13.2307C2.39632 13.1983 2.40916 13.1842 2.4681 13.1845C2.79472 13.1865 3.12133 13.1869 3.44795 13.1869C3.8039 13.1869 4.15971 13.1855 4.51566 13.1855C4.86932 13.1855 5.22297 13.1869 5.57662 13.1869C5.93027 13.1869 6.28393 13.1855 6.63758 13.1855C6.99123 13.1855 7.34488 13.1869 7.69854 13.1869C8.05449 13.1869 8.4103 13.1855 8.76625 13.1855C9.11991 13.1855 9.47356 13.1868 9.82721 13.1869C10.1809 13.1869 10.5345 13.1857 10.8882 13.1857C11.2418 13.1857 11.5955 13.1868 11.9491 13.1868C12.3051 13.1868 12.6609 13.1857 13.0168 13.1857C13.3705 13.1857 13.7241 13.1867 14.0778 13.1867C14.4315 13.1867 14.7851 13.1859 15.1388 13.1859C15.4947 13.1859 15.8505 13.1869 16.2065 13.1868C16.5713 13.1867 16.9364 13.1854 17.3012 13.1855C17.718 13.1855 18.1347 13.1866 18.5515 13.1871C18.6032 13.1871 18.6551 13.1873 18.7068 13.1851C18.7572 13.1831 18.7791 13.1917 18.7779 13.2263C18.774 13.3334 18.7738 13.4406 18.7764 13.5477C18.7772 13.5791 18.7552 13.5841 18.7118 13.5838C18.5519 13.5829 18.3919 13.5836 18.232 13.5835C17.4097 13.5831 16.5874 13.5823 15.7651 13.5823C14.9315 13.5823 14.0979 13.5833 13.2644 13.5835C12.3723 13.5837 11.48 13.5835 10.5879 13.5835L10.5882 13.5833Z" fill="white"/>
<path d="M6.39345 9.78942C6.39345 9.21637 6.3942 8.64333 6.39234 8.07015C6.39209 8.00847 6.40932 7.99107 6.46323 7.99121C7.27867 7.9926 8.09424 7.9919 8.90968 7.99176C9.11406 7.99176 9.31845 7.9933 9.52284 7.99065C9.57415 7.98996 9.58952 8.00694 9.58853 8.06597C9.58122 8.49227 9.50933 8.90284 9.37113 9.30033C9.12212 10.0169 8.70814 10.5838 8.13948 11.0057C7.79912 11.2582 7.42716 11.437 7.02272 11.5143C6.83817 11.5495 6.65002 11.5609 6.46373 11.5851C6.40895 11.5922 6.39221 11.5701 6.39234 11.5086C6.39407 10.9355 6.39333 10.3625 6.39333 9.78942H6.39345Z" fill="white"/>
<path d="M18.7766 7.79454C18.7766 8.52873 18.7766 9.26291 18.7766 9.99709C18.7766 10.2306 18.7743 10.4641 18.778 10.6976C18.779 10.7633 18.7626 10.7877 18.6876 10.7872C18.2162 10.7842 17.7446 10.7844 17.2732 10.7869C17.2011 10.7873 17.1796 10.7664 17.1799 10.6984C17.1832 10.0542 17.1839 9.41004 17.1839 8.76586C17.1839 7.9534 17.1822 7.1408 17.1815 6.32833C17.1811 5.848 17.1814 5.36766 17.1815 4.88732C17.1815 4.79516 17.1819 4.79435 17.2818 4.79435C17.7482 4.79422 18.2147 4.79422 18.6811 4.79435C18.7752 4.79435 18.7766 4.79624 18.7766 4.88463C18.7766 5.65694 18.7766 6.42939 18.7766 7.2017C18.7766 7.39922 18.7766 7.59688 18.7766 7.79441V7.79454Z" fill="white"/>
<path d="M14.7839 8.5938C14.7839 7.88289 14.7843 7.17186 14.7827 6.46096C14.7827 6.41014 14.795 6.39342 14.8542 6.39368C15.3384 6.39553 15.8227 6.39408 16.3071 6.39276C16.3548 6.39263 16.381 6.39935 16.3808 6.45359C16.379 7.87552 16.3788 9.29746 16.3798 10.7194C16.3798 10.7701 16.3679 10.7873 16.3086 10.7871C15.8217 10.785 15.3349 10.7852 14.8479 10.7876C14.7879 10.7879 14.7831 10.764 14.7833 10.7202C14.7843 10.0114 14.784 9.30259 14.7839 8.59393V8.5938Z" fill="white"/>
<path d="M12.7862 9.39263C12.7862 8.95305 12.7874 8.5136 12.7849 8.07403C12.7846 8.0096 12.8027 7.99038 12.8549 7.99063C13.2152 7.99289 13.5756 7.99428 13.9358 7.99277C13.9837 7.99252 13.9825 8.02153 13.9825 8.05958C13.9823 8.54714 13.9823 9.03469 13.9823 9.52224C13.9823 9.92188 13.9817 10.3215 13.9835 10.7211C13.9837 10.7701 13.9737 10.7871 13.9303 10.787C13.5678 10.7855 13.2053 10.7851 12.843 10.7873C12.7911 10.7877 12.7856 10.7605 12.7857 10.7112C12.7867 10.2717 12.7863 9.8322 12.7863 9.39263H12.7862Z" fill="white"/>
</svg>
