<svg width="13" height="9" viewBox="0 0 13 9" fill="none" xmlns="http://www.w3.org/2000/svg">
<path d="M6.50142 8.99596C5.13869 8.99596 3.77595 9.00663 2.41388 8.99329C1.02279 8.97928 -0.0576389 7.86322 0.00238469 6.46832C0.0465779 5.43832 0.567002 4.70118 1.50825 4.2729C1.64215 4.21219 1.77209 4.08811 1.84728 3.95936C2.12761 3.48239 2.49633 3.12215 3.03061 2.96605C3.21134 2.91335 3.27334 2.82396 3.31226 2.63117C3.58665 1.27429 4.68554 0.203595 5.94538 0.0354856C7.44333 -0.164644 8.72691 0.489113 9.38849 1.80997C9.47621 1.98475 9.58703 2.03812 9.75588 2.07347C11.1318 2.36566 11.8963 3.16818 12.1469 4.55441C12.1667 4.66448 12.2413 4.77456 12.3164 4.86195C13.0031 5.65313 13.1997 6.54771 12.7815 7.515C12.3659 8.47495 11.6061 8.98595 10.556 8.99396C9.20446 9.00463 7.85294 8.99663 6.50142 8.99663V8.99596ZM4.06618 3.65583C3.91249 3.65583 3.79376 3.64916 3.67701 3.65717C3.07084 3.69919 2.64342 3.99672 2.49897 4.54441C2.42905 4.81058 2.29911 4.90264 2.05242 4.96468C1.25299 5.16481 0.706177 5.93064 0.797862 6.68046C0.906036 7.56903 1.55574 8.18343 2.43697 8.1861C5.15056 8.19411 7.86349 8.19277 10.5771 8.1861C11.2908 8.1841 11.8752 7.74381 12.1047 7.08005C12.327 6.43763 12.1219 5.74986 11.5955 5.27355C11.4906 5.17882 11.4049 5.00871 11.395 4.86795C11.3218 3.82127 10.6628 3.0481 9.64573 2.86999C9.41091 2.82863 9.16752 2.84197 8.93204 2.83063C8.44922 1.43239 7.50533 0.68524 6.35235 0.789975C5.77916 0.842008 5.26731 1.04948 4.84187 1.44907C4.21855 2.03411 4.01341 2.7826 4.06684 3.65717L4.06618 3.65583Z" fill="white"/>
<path d="M7.53483 4.62212C7.74169 4.88427 7.87996 5.0601 8 5.21228C7.50322 5.80435 6.99518 6.40985 6.5 7C6.02626 6.43542 5.51822 5.82992 5 5.21228C5.13344 5.06522 5.28189 4.90153 5.46249 4.70332C5.67203 4.97634 5.89711 5.26982 6.12219 5.5633C6.14469 5.54795 6.16667 5.53261 6.18917 5.51726L6.18917 3L6.82744 3L6.82744 5.49808L6.88639 5.53453C7.10021 5.23465 7.31351 4.93478 7.53537 4.62276L7.53483 4.62212Z" fill="white"/>
</svg>
