<svg width="12" height="7" viewBox="0 0 12 7" fill="none" xmlns="http://www.w3.org/2000/svg">
<path d="M12 0.404703C11.7075 0.646056 11.4344 0.874044 11.1561 1.09693C11.1306 1.11667 11.0605 1.11816 11.0255 1.10351C10.3831 0.837322 9.70444 0.709951 8.98792 0.744763C7.48534 0.81821 6.33794 1.39963 5.60045 2.48031C4.90005 3.50685 4.89647 4.57564 5.4951 5.64528C5.513 5.67734 5.53243 5.70896 5.54624 5.73295L4.01706 7C3.50333 6.70112 2.96402 6.40563 2.44773 6.08298C1.59735 5.54938 0.810338 4.94954 0.0974474 4.29162C-0.0304106 4.17403 -0.0329691 4.10248 0.0928432 3.98892C1.4888 2.72866 3.06861 1.6639 4.92179 0.897386C5.95411 0.470719 7.03502 0.162924 8.18728 0.0482975C9.38914 -0.0714239 10.5654 0.0347179 11.72 0.330201C11.8039 0.35164 11.8877 0.374773 12 0.404703Z" fill="#D9D9D9"/>
</svg>
