<svg width="72" height="72" viewBox="0 0 72 72" fill="none" xmlns="http://www.w3.org/2000/svg">
<path d="M61.1356 47.9186C59.4642 46.2263 57.8986 44.6766 56.3928 43.0709C56.2015 42.8668 56.2233 42.3427 56.3132 42.0127C58.0685 35.581 57.1647 29.564 53.4616 24.0172C48.7584 16.9725 40.0615 13.5177 31.5898 15.2597C23.3732 16.9494 16.791 23.6372 15.2301 31.8824C12.9466 43.9437 20.8884 55.151 33.0316 56.9746C36.1057 57.4362 39.1383 57.1589 42.1225 56.2918C42.3819 56.2162 42.7991 56.1629 42.9474 56.3042C44.5818 57.8613 46.1776 59.4589 47.8865 61.1476C46.6371 61.6636 45.5739 62.1245 44.4942 62.5415C43.5945 62.889 43.0568 63.4855 42.8088 64.4359C42.2604 66.5375 41.6251 68.6166 41.067 70.7162C40.8324 71.5985 40.3032 71.9946 39.4209 71.9946C37.1226 71.994 34.8247 71.9933 32.5265 72C31.6318 72.0027 31.1223 71.5797 30.8884 70.7092C30.3165 68.5821 29.6816 66.4721 29.1144 64.3436C28.8798 63.464 28.3707 62.9064 27.5428 62.573C26.0664 61.9788 24.5935 61.3755 23.1332 60.7437C22.306 60.3858 21.5498 60.4339 20.7696 60.8854C18.8885 61.9745 16.9786 63.0138 15.1025 64.112C14.2511 64.6102 13.5806 64.5054 12.8976 63.8028C11.3179 62.1772 9.71437 60.5738 8.09306 58.9896C7.4336 58.345 7.39164 57.6941 7.82726 56.9273C8.93107 54.9841 10.0852 53.0645 11.0746 51.064C11.3736 50.459 11.4075 49.5536 11.2001 48.9013C10.7011 47.3311 9.98017 45.8322 9.36333 44.2986C9.05222 43.5251 8.48673 43.0699 7.70007 42.853C5.63542 42.2843 3.57144 41.7136 1.5078 41.1415C0.264048 40.7967 0.0146928 40.4788 0.0120079 39.2105C0.00730944 37.0041 0.0277814 34.7975 0.000261714 32.5915C-0.0114845 31.6504 0.371442 31.122 1.29469 30.8783C3.39391 30.324 5.47198 29.6898 7.57119 29.1366C8.48169 28.8965 9.07303 28.392 9.4177 27.5241C10.005 26.045 10.6145 24.5742 11.2397 23.1108C11.5934 22.2829 11.532 21.5141 11.0883 20.7406C10.0221 18.8811 8.97369 17.0115 7.91418 15.1482C7.34365 14.1448 7.39198 13.6936 8.20784 12.8738C9.76337 11.31 11.3226 9.7499 12.8869 8.19486C13.7353 7.3512 14.1611 7.3136 15.2391 7.92695C17.0487 8.95694 18.8687 9.96879 20.6696 11.0139C21.5331 11.5151 22.3751 11.5702 23.295 11.1676C24.6968 10.5539 26.1127 9.96946 27.5397 9.41687C28.4163 9.07746 28.9288 8.48827 29.1698 7.58587C29.7229 5.5165 30.3095 3.4562 30.8894 1.39389C31.219 0.221901 31.5039 0.00536274 32.7004 0.00368415C34.9066 -8.74226e-06 37.1129 -0.00202305 39.3188 0.00301272C40.471 0.00569846 40.8277 0.270915 41.1442 1.39591C41.7157 3.428 42.2876 5.46044 42.8236 7.50194C43.078 8.47048 43.6203 9.10096 44.5657 9.46219C45.995 10.0084 47.4046 10.609 48.8091 11.217C49.63 11.5722 50.3985 11.5591 51.1795 11.1122C53.0666 10.0326 54.9611 8.96667 56.8559 7.90043C57.8658 7.33206 58.301 7.39451 59.1293 8.22171C60.6681 9.75863 62.2041 11.2982 63.7389 12.8395C64.6443 13.7486 64.6926 14.0894 64.0805 15.1734C63.0267 17.04 61.9806 18.911 60.9117 20.7688C60.4667 21.5423 60.3885 22.2963 60.7516 23.1323C61.3863 24.592 61.9857 26.0675 62.5696 27.5483C62.8985 28.3819 63.4479 28.8989 64.3255 29.1342C66.4237 29.6969 68.5045 30.326 70.6057 30.8773C71.5494 31.125 72.0065 31.6437 71.9985 32.6267C71.9807 34.8636 71.9753 37.1008 71.9998 39.3377C72.0105 40.3163 71.5863 40.8689 70.6423 41.1197C68.6021 41.6612 66.5794 42.2692 64.5366 42.7989C63.5298 43.0601 62.8693 43.6084 62.5062 44.5897C62.1139 45.6488 61.649 46.6812 61.1356 47.9186Z" fill="#0062FF"/>
<path d="M51.9749 35.842C51.6266 37.5459 51.312 39.2578 50.9093 40.9485C50.7867 41.4633 50.8237 41.7838 51.2013 42.1639C57.2576 48.2558 63.288 54.3744 69.3536 60.4565C70.7045 61.8109 71.8511 63.2327 71.9851 65.2409C72.1634 67.91 70.8055 70.2844 68.4843 71.3921C66.1581 72.5021 63.3776 72.0809 61.4614 70.2178C59.2705 68.088 57.1433 65.8913 54.9921 63.7198C50.7973 59.4863 46.5982 55.2568 42.4228 51.004C42.0055 50.5788 41.6649 50.5724 41.1439 50.7434C31.9841 53.7515 22.5323 48.1447 20.8351 38.6033C20.5238 36.8533 20.7131 35.002 20.7804 33.2015C20.7964 32.7713 21.1697 32.1272 21.5237 32.0034C21.8527 31.8879 22.4736 32.233 22.7966 32.5508C25.1935 34.9081 27.5627 37.2944 29.9065 39.7052C30.5868 40.4048 31.2828 40.6014 32.2034 40.288C36.3478 38.8764 39.1107 36.0861 40.5606 31.9253C40.9102 30.922 40.6936 30.1746 39.9533 29.443C37.6058 27.1227 35.2816 24.7775 32.987 22.4044C32.6464 22.0519 32.2157 21.3483 32.3524 21.0695C32.5507 20.6642 33.2 20.34 33.7033 20.2528C41.9718 18.8176 50.102 24.626 51.5156 32.9568C51.6743 33.8914 51.7243 34.8445 51.8249 35.7892C51.8749 35.8067 51.9249 35.8245 51.9749 35.842Z" fill="#0062FF"/>
</svg>
