<svg width="17" height="17" viewBox="0 0 17 17" fill="none" xmlns="http://www.w3.org/2000/svg">
<path d="M14.4348 11.3141C14.0402 10.9145 13.6705 10.5486 13.315 10.1695C13.2698 10.1213 13.2749 9.99758 13.2962 9.91966C13.7106 8.40107 13.4972 6.98038 12.6229 5.67073C11.5124 4.0074 9.45897 3.19167 7.45871 3.60298C5.51867 4.00193 3.96453 5.581 3.59599 7.52779C3.05683 10.3756 4.93198 13.0218 7.79913 13.4523C8.52497 13.5613 9.24098 13.4959 9.94559 13.2911C10.0068 13.2733 10.1053 13.2607 10.1404 13.294C10.5263 13.6617 10.903 14.0389 11.3065 14.4376C11.0115 14.5595 10.7605 14.6683 10.5056 14.7667C10.2931 14.8488 10.1662 14.9896 10.1076 15.214C9.97815 15.7103 9.82815 16.2011 9.69638 16.6969C9.64099 16.9052 9.51603 16.9987 9.3077 16.9987C8.76507 16.9986 8.22251 16.9984 7.67987 17C7.46862 17.0006 7.34833 16.9008 7.2931 16.6952C7.15807 16.193 7.00815 15.6948 6.87423 15.1922C6.81885 14.9846 6.69864 14.8529 6.50315 14.7742C6.15457 14.6339 5.80679 14.4914 5.46201 14.3423C5.26669 14.2578 5.08816 14.2691 4.90393 14.3757C4.45978 14.6329 4.00883 14.8783 3.56587 15.1375C3.36484 15.2552 3.20652 15.2304 3.04527 15.0645C2.67228 14.6807 2.29367 14.3022 1.91086 13.9281C1.75515 13.7759 1.74525 13.6222 1.8481 13.4412C2.10872 12.9824 2.38123 12.5291 2.61483 12.0568C2.68544 11.9139 2.69344 11.7002 2.64447 11.5461C2.52664 11.1754 2.35643 10.8215 2.21079 10.4594C2.13733 10.2768 2.00381 10.1693 1.81807 10.1181C1.33059 9.98379 0.843258 9.84904 0.356009 9.71397C0.0623446 9.63256 0.00346913 9.55749 0.0028352 9.25802C0.00172584 8.73708 0.0065595 8.21606 6.17936e-05 7.6952C-0.00271162 7.47302 0.0877015 7.34825 0.305692 7.29071C0.801339 7.15984 1.292 7.0101 1.78764 6.87947C2.00262 6.8228 2.14224 6.70366 2.22362 6.49875C2.36229 6.1495 2.50619 5.80224 2.65382 5.45671C2.73734 5.26124 2.72284 5.07972 2.61808 4.89709C2.36633 4.45803 2.11879 4.0166 1.86863 3.57667C1.73392 3.33974 1.74533 3.2332 1.93796 3.03964C2.30524 2.67041 2.67339 2.30206 3.04273 1.9349C3.24305 1.7357 3.3436 1.72682 3.59812 1.87164C4.02539 2.11483 4.45511 2.35374 4.88031 2.6005C5.0842 2.71884 5.28301 2.73184 5.50021 2.6368C5.83119 2.4919 6.16551 2.3539 6.50244 2.22343C6.70941 2.14329 6.83041 2.00418 6.88731 1.79111C7.0179 1.30251 7.15641 0.816048 7.29334 0.329113C7.37115 0.0523932 7.43842 0.0012662 7.72092 0.000869869C8.24184 -2.06414e-06 8.76277 -0.000477664 9.28361 0.000711336C9.55565 0.00134547 9.63988 0.0639662 9.7146 0.329589C9.84955 0.80939 9.98457 1.28927 10.1111 1.77129C10.1712 1.99997 10.2992 2.14884 10.5225 2.23413C10.8599 2.3631 11.1927 2.5049 11.5244 2.64845C11.7182 2.73232 11.8997 2.72923 12.084 2.62372C12.5296 2.3688 12.9769 2.11713 13.4243 1.86538C13.6627 1.73118 13.7655 1.74592 13.9611 1.94124C14.3244 2.30412 14.6871 2.66764 15.0495 3.03155C15.2632 3.2462 15.2747 3.32666 15.1301 3.58261C14.8813 4.02333 14.6343 4.46509 14.3819 4.90375C14.2769 5.08638 14.2584 5.26441 14.3441 5.46179C14.494 5.80644 14.6355 6.15482 14.7734 6.50446C14.851 6.70128 14.9808 6.82335 15.188 6.87892C15.6834 7.01177 16.1747 7.16031 16.6708 7.29047C16.8936 7.34897 17.0015 7.47143 16.9996 7.70353C16.9954 8.23168 16.9942 8.75991 17 9.28807C17.0025 9.51913 16.9023 9.6496 16.6794 9.70881C16.1977 9.83667 15.7201 9.98022 15.2378 10.1053C15.0001 10.167 14.8441 10.2964 14.7584 10.5281C14.6658 10.7782 14.556 11.0219 14.4348 11.3141Z" fill="white"/>
<path d="M12.2717 8.4627C12.1895 8.865 12.1152 9.2692 12.0201 9.6684C11.9912 9.78994 11.9999 9.86562 12.0891 9.95536C13.519 11.3937 14.9428 12.8384 16.375 14.2745C16.694 14.5943 16.9647 14.9299 16.9963 15.4041C17.0384 16.0343 16.7178 16.5949 16.1698 16.8565C15.6205 17.1185 14.964 17.0191 14.5116 16.5792C13.9943 16.0763 13.492 15.5577 12.9841 15.045C11.9937 14.0454 11.0022 13.0467 10.0164 12.0426C9.91783 11.9422 9.8374 11.9407 9.71439 11.9811C7.55166 12.6913 5.31999 11.3675 4.91925 9.11467C4.84574 8.70148 4.89045 8.26437 4.90634 7.83925C4.91012 7.73767 4.99826 7.5856 5.08184 7.55635C5.15952 7.52908 5.30613 7.61056 5.38239 7.6856C5.94832 8.24219 6.50771 8.80562 7.06113 9.37485C7.22175 9.54003 7.38607 9.58645 7.60344 9.51244C8.58199 9.17914 9.23432 8.52033 9.57667 7.53791C9.65922 7.30103 9.60807 7.12456 9.43328 6.95183C8.879 6.40398 8.33023 5.85025 7.78846 5.28992C7.70803 5.2067 7.60635 5.04056 7.63862 4.97475C7.68545 4.87904 7.83875 4.80249 7.95759 4.7819C9.90988 4.44304 11.8295 5.81448 12.1633 7.78146C12.2007 8.00213 12.2125 8.22717 12.2363 8.45022C12.2481 8.45435 12.2599 8.45856 12.2717 8.4627Z" fill="white"/>
</svg>
