<svg width="14" height="17" viewBox="0 0 14 17" fill="none" xmlns="http://www.w3.org/2000/svg">
<path d="M5.70607 4.10582C5.29635 4.51767 4.923 4.89173 4.55144 5.26722C4.44732 5.37241 4.34177 5.46477 4.17845 5.39809C4.01014 5.32926 3.99124 5.1902 3.99445 5.03187C4.00479 4.5273 4.00301 4.02238 4.01941 3.51816C4.02833 3.24609 4.15634 3.01823 4.34747 2.8271C5.03996 2.13354 5.73174 1.43927 6.42673 0.748201C6.69702 0.479335 7.02151 0.480405 7.29074 0.748558C7.98537 1.43998 8.67679 2.13461 9.37035 2.8271C9.6007 3.0571 9.7141 3.33096 9.70875 3.6583C9.7009 4.12757 9.69912 4.59684 9.70055 5.0661C9.7009 5.21551 9.66524 5.33568 9.51655 5.39773C9.37213 5.45799 9.26658 5.39202 9.16852 5.29289C8.7884 4.90885 8.40685 4.52623 8.01853 4.13613C7.96504 4.20103 7.98893 4.26771 7.98893 4.32654C7.98751 8.18195 7.98644 12.037 7.99143 15.8924C7.99178 16.0522 7.95541 16.0967 7.79174 16.0939C7.1563 16.0835 6.52051 16.0843 5.88543 16.0935C5.73709 16.0957 5.70286 16.0589 5.70286 15.911C5.70749 12.0559 5.70642 8.2005 5.70642 4.34544C5.70607 4.28197 5.70607 4.21921 5.70607 4.10582Z" fill="white"/>
<path d="M2.56996 10.386C1.76836 10.386 0.967108 10.3825 0.165502 10.3892C0.0296429 10.3903 -0.00138006 10.3518 4.62808e-05 10.2206C0.00682142 9.56767 0.00610825 8.91441 0.000402867 8.2615C-0.000666892 8.13955 0.02786 8.10139 0.155874 8.10175C1.76479 8.10638 3.37335 8.10603 4.98227 8.10175C5.10921 8.10139 5.13952 8.13812 5.13845 8.26079C5.13239 8.9137 5.13204 9.56696 5.13881 10.2199C5.14024 10.3497 5.111 10.3903 4.97407 10.3892C4.17282 10.3825 3.37121 10.386 2.56996 10.386Z" fill="white"/>
<path d="M11.1062 10.386C10.3107 10.386 9.51513 10.3825 8.71959 10.3896C8.58302 10.3907 8.55306 10.3511 8.55449 10.2206C8.56127 9.56767 8.56055 8.91441 8.55485 8.26114C8.55378 8.13883 8.58337 8.10139 8.71068 8.10175C10.3196 8.10603 11.9282 8.10603 13.5371 8.10175C13.6647 8.10139 13.694 8.13883 13.6929 8.26114C13.6868 8.91405 13.6865 9.56732 13.6933 10.2206C13.6947 10.3511 13.6647 10.3907 13.5282 10.3896C12.7208 10.3825 11.9135 10.386 11.1062 10.386Z" fill="white"/>
</svg>
